<svg width="180" height="40" viewBox="0 0 180 40" fill="none" xmlns="http://www.w3.org/2000/svg">
<path d="M71.8594 2.38403H71.8604C71.9187 2.38404 71.975 2.38493 72.0322 2.38794C71.6511 3.48614 71.2667 4.55063 70.9531 5.62134C70.5828 6.88592 70.3001 8.19711 69.9873 9.43774C69.968 9.51081 69.9388 9.58842 69.8975 9.69263C69.8785 9.74048 69.8564 9.79592 69.834 9.85571L69.7695 10.0452C69.2125 11.9019 68.6544 13.7595 68.1045 15.6174V15.6194C67.602 17.3368 67.1517 19.0242 66.6221 20.7131L66.6211 20.7161C66.4137 21.3913 66.1866 22.0614 65.9561 22.7405C65.7263 23.4172 65.4922 24.1029 65.2764 24.7991C64.7153 26.601 64.1606 28.4161 63.6533 30.2473C63.514 30.7448 63.4105 31.2489 63.3135 31.7375C63.2153 32.232 63.1238 32.708 63.0068 33.176V33.177C62.9689 33.3303 62.8987 33.4857 62.8018 33.6877C62.7121 33.8745 62.5936 34.1117 62.5186 34.3665L62.5166 34.3762C62.1579 35.6859 61.8104 36.9389 61.457 38.1897H42.3682C42.4891 37.8021 42.6106 37.4211 42.7324 37.0432C42.9205 36.4601 43.1081 35.8818 43.2842 35.2991C43.6363 34.1342 43.947 32.8972 44.2637 31.7151L44.2646 31.7161C44.4846 30.9029 44.6323 30.1758 44.8682 29.4202L44.8672 29.4192C45.0856 28.7349 45.3235 28.0559 45.5615 27.3674C45.7991 26.6803 46.0376 25.9849 46.2539 25.2815C46.647 24.0131 46.9728 22.6701 47.3301 21.425C47.3742 21.2729 47.4376 21.1207 47.5146 20.9407C47.588 20.7694 47.6756 20.5664 47.7422 20.3538C47.9782 19.6043 48.1925 18.8068 48.4297 17.9856L48.6826 17.1077L47.8066 17.3674C47.1797 17.5532 46.5628 17.7713 45.958 18.0198L45.9443 18.0247L45.9316 18.0305C45.4809 18.2463 45.0458 18.4889 44.627 18.7219C44.2034 18.9575 43.7956 19.184 43.3779 19.3821C42.9601 19.5803 42.5257 19.755 42.0762 19.9329C41.6312 20.1089 41.1687 20.2899 40.7178 20.4924C39.8235 20.8941 38.9757 21.3365 38.1455 21.8196L38.1445 21.8206C37.6098 22.1335 37.263 22.2093 36.9951 22.179C36.7265 22.1485 36.4375 22.0003 36.0391 21.6399L36.0205 21.6223L36.001 21.6077L35.708 21.4016C35.4182 21.2066 35.1161 21.0302 34.8037 20.8733L29.6221 17.6204L29.0488 17.26L28.874 17.9143C28.6496 18.7532 28.4527 19.4756 28.2646 20.1799L28.2637 20.1819C28.2484 20.2398 28.2428 20.2907 28.2402 20.3235C28.239 20.3389 28.2388 20.3536 28.2383 20.3635C27.789 21.5719 27.2912 22.807 26.873 24.0579C26.455 25.3082 26.1203 26.5532 25.7559 27.7561C25.7119 27.8979 25.6429 28.0401 25.5537 28.22C25.4704 28.3879 25.3654 28.5964 25.291 28.8196L25.29 28.8215C24.8586 30.1355 24.4256 31.4508 24.0068 32.7727L23.5938 34.0959C23.4218 34.6478 23.2694 35.2041 23.1201 35.7522C22.9701 36.3029 22.8239 36.8453 22.6611 37.3831L22.6543 37.4045L22.6494 37.427C22.6348 37.4982 22.5945 37.5615 22.5361 37.6047C22.4777 37.6479 22.4053 37.6682 22.333 37.6614L22.3096 37.6594H22.2871C16.1182 37.6372 9.91547 37.6592 3.75098 37.6409C3.74017 37.6399 3.72955 37.637 3.71875 37.636C4.00567 36.6778 4.29633 35.7366 4.55078 34.7942L4.5498 34.7932C4.69327 34.2682 4.8192 33.7413 4.94141 33.2229C5.06437 32.7012 5.18326 32.1885 5.31836 31.6809L5.31934 31.6819C5.38563 31.4354 5.47218 31.1901 5.56738 30.929C5.66054 30.6735 5.76452 30.3962 5.85254 30.1145L5.85547 30.1057C6.33091 28.4719 6.74323 26.8882 7.22754 25.2825C7.4426 24.5711 7.6769 23.8648 7.91309 23.1516C8.14855 22.4406 8.38602 21.7222 8.60547 20.9963C9.09002 19.3936 9.5449 17.7804 9.98047 16.1536C10.3002 14.9732 10.5862 13.7625 10.8965 12.5227C10.9053 12.522 10.9142 12.5224 10.9229 12.5217C11.0594 12.5105 11.1811 12.5012 11.2988 12.5012C13.801 12.5012 16.2767 12.4596 18.7588 12.5002V12.5012L18.7598 12.5002C18.761 12.5003 18.7625 12.5012 18.7637 12.5012V12.5002C19.3511 12.5139 19.7722 12.2945 20.1006 12.0227C20.2565 11.8936 20.3938 11.7508 20.5107 11.6282C20.6341 11.4989 20.7344 11.393 20.8408 11.2991V11.2981C21.1247 11.047 21.0803 10.697 21.0342 10.5276C20.9813 10.3333 20.8733 10.146 20.7568 9.99048C20.6371 9.83062 20.4871 9.67463 20.3203 9.54907C20.1588 9.4275 19.9491 9.30993 19.7129 9.27173L19.6953 9.2688L19.6768 9.26685L19.375 9.25415C19.289 9.25415 19.203 9.25849 19.1172 9.26489L14.5312 9.2522C13.0026 9.24803 11.4727 9.24727 9.94531 9.26392C8.88449 9.25486 7.83501 9.04298 6.85449 8.63794L6.83789 8.6311L6.82031 8.62524C6.16887 8.41028 5.53043 8.15831 4.9082 7.87036L4.29102 7.57056C3.52641 7.17707 2.84608 6.64009 2.28613 5.99048L2.05371 5.70532C1.90759 5.50169 1.74632 5.31861 1.60645 5.15845C1.45723 4.98758 1.33005 4.84015 1.22266 4.68384L1.21387 4.67114L1.20508 4.65942C0.959062 4.34308 0.760979 3.99231 0.617188 3.61841C0.563583 3.33801 0.530501 3.05444 0.513672 2.76978H32.7568C33.4461 2.76729 34.1128 3.01566 34.6328 3.46802L34.6514 3.48462L34.6719 3.49927C35.2617 3.9169 35.883 4.28817 36.5293 4.61157C37.5527 5.20684 38.5609 5.77707 39.5674 6.37427C40.1702 6.79592 40.8015 7.17502 41.458 7.50708L41.4775 7.51782L41.499 7.52563C41.8249 7.65514 42.1704 7.5621 42.377 7.49243C42.6008 7.41692 42.8491 7.29666 42.9951 7.23364C43.4505 7.04674 43.9073 6.83963 44.3584 6.62915L45.6973 6.00513L47.8086 5.0481C48.2779 4.83746 48.751 4.62686 49.2246 4.41431L50.6426 3.76685C50.9887 3.60429 51.3312 3.42373 51.6553 3.25806C51.9845 3.08973 52.3027 2.93187 52.626 2.79907L52.6406 2.79321L52.6562 2.7854C53.0929 2.57106 53.5661 2.44041 54.0508 2.40161C59.986 2.3683 65.9212 2.38032 71.8594 2.38403Z" fill="#B1B1B1" stroke="#B1B1B1"/>
<path d="M114.408 2.23901C114.649 2.23901 114.796 2.24742 114.893 2.26538C114.93 2.27234 114.951 2.27966 114.962 2.28394C114.969 2.29642 114.982 2.32498 114.997 2.38159C115.027 2.49116 115.051 2.64675 115.083 2.8894L115.086 2.91089L115.091 2.93237C115.232 3.56393 115.417 4.18504 115.647 4.78979C116.112 6.40825 116.569 8.03021 117.017 9.65601C117.41 11.1004 117.779 12.5414 118.167 13.9978L118.168 14.0007C118.202 14.1258 118.254 14.2399 118.286 14.3123C118.324 14.3974 118.343 14.4413 118.354 14.4792V14.4802L118.355 14.4861C118.844 16.1882 119.327 17.8967 119.828 19.6033C119.844 19.7321 119.883 19.8433 119.893 19.8728L119.896 19.8835C120.409 21.3916 120.945 22.8071 121.396 24.2839C121.676 25.2053 121.816 26.1291 122.039 27.1384V27.1394C122.082 27.3759 122.139 27.6099 122.209 27.8396L122.212 27.8474C122.711 29.3861 123.235 30.876 123.693 32.407V32.408C124.112 33.8094 124.422 35.1668 124.828 36.615L124.83 36.6218C124.946 37.0138 125.087 37.3979 125.254 37.7712V37.7722C125.282 37.8383 125.304 37.8961 125.322 37.946C125.274 37.9485 125.218 37.9519 125.153 37.9519H105.903C105.842 37.9519 105.8 37.9479 105.772 37.9441C105.769 37.9308 105.764 37.9148 105.761 37.8953L105.743 37.7703V37.7693L105.608 36.6853C105.462 35.6039 105.286 34.5294 105.12 33.4656C105.072 33.1554 104.949 32.8479 104.677 32.6316C104.411 32.4208 104.083 32.3608 103.761 32.363C100.208 32.3889 96.5922 32.3629 93.0332 32.3962H93.0156L92.998 32.3982C92.7581 32.4177 92.524 32.486 92.3115 32.5994C92.0993 32.7127 91.9124 32.8681 91.7627 33.0564L91.7549 33.0662L91.7471 33.0769C90.6781 34.572 89.6518 36.1285 88.6484 37.6707L88.6377 37.6873L88.6279 37.7048C88.5678 37.8156 88.4778 37.9073 88.3682 37.9695C88.2585 38.0316 88.1337 38.0617 88.0078 38.0564H87.9873C81.6508 38.0564 75.3126 38.0501 68.9736 38.0378C68.9795 38.0273 68.9842 38.0161 68.9902 38.0056C69.4628 37.4082 69.9439 36.8161 70.4258 36.2214C70.9156 35.6171 71.4078 35.0107 71.8926 34.3992C72.2572 33.9387 72.61 33.469 72.958 33.0076C73.3075 32.5443 73.6528 32.0881 74.0078 31.6453L74.0088 31.6433C74.8305 30.607 75.6769 29.5935 76.5215 28.5583L76.5225 28.5593C77.5259 27.3321 78.5077 26.1054 79.5156 24.9011C80.5049 23.7191 81.6366 22.4559 82.6514 21.2078C82.9543 20.8349 83.2289 20.4443 83.4902 20.0662C83.7547 19.6836 84.0043 19.3173 84.2705 18.9666L84.2773 18.9558C84.393 18.7952 84.5266 18.6432 84.6777 18.4773C84.8236 18.3173 84.9927 18.137 85.1475 17.946L85.1504 17.9431C86.7455 15.9436 88.3064 13.9372 89.9326 11.9744C90.1484 11.7733 90.4303 11.6576 90.7256 11.6501H90.7275C91.5807 11.6263 92.4365 11.6263 93.2998 11.6277C94.161 11.6291 95.031 11.6318 95.9014 11.613L95.9004 11.6121C96.3396 11.6131 96.7676 11.4725 97.1191 11.2087L97.1377 11.1941L97.1553 11.1785C97.3196 11.0288 97.4877 10.82 97.6094 10.6033C97.6707 10.4939 97.7278 10.3694 97.7637 10.238C97.7948 10.1239 97.8149 9.9771 97.7881 9.82007H97.79C97.7398 9.4282 97.5437 9.0693 97.2412 8.81519C96.9434 8.56521 96.5639 8.43566 96.1758 8.44897V8.448C92.4066 8.48139 88.6364 8.47027 84.8643 8.448H84.8652C84.495 8.44409 84.1281 8.36756 83.7871 8.22339C82.7785 7.7821 81.8419 7.46619 81.0811 6.9187L80.9316 6.80542C79.891 5.95409 78.9422 4.99652 78.1006 3.948L78.0918 3.93726L77.9053 3.70093C77.7248 3.45593 77.5604 3.18601 77.3965 2.89624C77.2815 2.69296 77.1585 2.46671 77.0332 2.23901H114.408ZM101.49 15.4744L96.5029 25.3582L96.1367 26.0828H103.073C103.283 26.0828 103.498 26.0425 103.683 25.9197C103.877 25.7902 103.981 25.607 104.029 25.4304C104.074 25.266 104.072 25.1035 104.062 24.9783C104.051 24.8512 104.029 24.7236 104.012 24.6277L104.011 24.6218L103.729 23.1404C103.479 21.794 103.266 20.4731 103.229 19.1218L103.225 18.7517C103.224 18.1969 103.133 17.6561 103.025 17.1453C102.913 16.6107 102.794 16.1565 102.703 15.6619L102.642 15.325L102.305 15.2605L102.03 15.2087L101.66 15.1384L101.49 15.4744Z" fill="#B1B1B1" stroke="#B1B1B1"/>
<mask id="path-3-inside-1_2029_2862" fill="white">
<path d="M137.303 9.52357C136.188 9.29701 135.074 9.07418 133.96 8.83648C133.44 8.74684 132.926 8.62277 132.422 8.46507C131.345 8.0751 130.268 7.68141 129.225 7.21345C128.464 6.88601 127.741 6.4789 127.067 5.99895C126.256 5.42382 125.509 4.76395 124.838 4.03051C124.095 3.20228 123.512 2.24405 122.732 1.16698C123.278 1.11127 123.576 1.05185 123.873 1.04814C127.821 1.04814 131.769 1.10756 135.713 1.00357C139.178 0.910721 142.64 0.632165 146.112 0.420465C147.806 0.3239 149.496 0.245904 151.189 0.164195C152.493 0.101057 153.789 -0.0103656 155.104 0.000776544C157.221 0.0193467 159.364 -0.0512259 161.448 0.238469C163.345 0.50588 165.191 1.16698 167.037 1.72408C168.164 2.01839 169.257 2.42915 170.298 2.94972C172.155 3.98594 174.075 4.9553 175.687 6.44092C176.845 7.51065 177.767 8.80965 178.395 10.2552C178.978 11.5423 179.421 12.8883 179.717 14.2701C180.15 16.4389 180.086 18.6778 179.528 20.818C178.967 23.1281 177.878 25.13 176.586 27.0613C176.393 27.3435 176.215 27.6332 175.999 27.9006C175.19 28.9369 174.142 29.1931 172.827 29.1634C169.113 29.0854 165.381 29.13 161.656 29.1374C161.11 29.1374 160.694 29.1151 160.716 28.3723C160.738 27.6852 161.043 27.4401 161.674 27.4661C161.896 27.4748 162.118 27.4686 162.339 27.4475C162.866 27.3955 163.004 27.0761 162.866 26.6081C162.799 26.3779 162.632 26.1736 162.547 25.947C162.38 25.4939 162.369 25.0743 162.874 24.8031C163.067 24.6991 163.245 24.584 163.442 24.4651C164.185 24.0009 164.616 23.6778 163.995 22.7121C163.375 21.7465 163.516 21.3454 164.523 20.9034C165.069 20.662 165.448 20.2274 165.329 19.7186C165.188 19.1885 164.874 18.7206 164.437 18.389C163.717 17.869 163.591 17.531 164.17 16.8179C164.95 15.8634 164.838 15.4289 163.706 14.9944C162.941 14.7009 162.718 13.8801 163.193 13.0928C163.728 12.2163 163.253 11.3509 162.202 11.3732C161.492 11.3732 161.232 11.1466 161.273 10.4261C161.325 9.531 160.864 9.07045 159.988 9.12988C159.29 9.17816 158.993 8.99246 159.045 8.23851C159.111 7.27658 158.71 6.99432 157.771 7.3063C157.084 7.52914 156.679 7.46599 156.486 6.6489C156.292 5.83182 155.657 5.71669 155 6.19208C154.101 6.82719 154.001 6.80861 153.451 5.92467C153.39 5.81948 153.304 5.73092 153.201 5.66677C153.097 5.60262 152.98 5.56485 152.858 5.55678C152.737 5.54871 152.615 5.57059 152.504 5.62049C152.393 5.67039 152.296 5.74679 152.222 5.84296C151.479 6.76405 151.479 6.76404 150.588 6.11408C150.016 5.70182 149.57 5.85782 149.392 6.53749C149.195 7.2803 148.842 7.39914 148.255 6.86803C147.297 6.0138 146.792 6.1438 146.357 7.362C146.116 8.03053 145.83 8.12338 145.21 7.68512C144.838 7.414 144.5 6.99803 143.988 7.39543C143.475 7.79283 143.524 8.27565 143.661 8.80676C143.862 9.54957 143.568 9.83927 142.796 9.63499C141.86 9.38615 141.492 9.72413 141.681 10.6526C141.811 11.3175 141.585 11.6109 140.909 11.648C140.688 11.646 140.467 11.6571 140.248 11.6814C139.62 11.8114 139.39 12.2905 139.676 12.8254C140.188 13.7761 139.917 14.285 138.844 14.4558C138.658 14.4855 138.369 14.6378 138.357 14.7529C138.342 14.8798 138.351 15.0085 138.386 15.1315C138.42 15.2546 138.479 15.3696 138.558 15.4697C139.074 15.9526 139.078 16.3351 138.469 16.7288C138.319 16.8137 138.162 16.887 138.001 16.9479C137.34 17.2265 137.258 17.5496 137.745 18.1104C138.391 18.8532 138.365 18.8532 137.67 19.5961C137.595 19.728 137.556 19.877 137.556 20.0287C137.556 20.1804 137.595 20.3295 137.67 20.4614C138.58 21.3194 138.636 21.3082 138.19 22.4596C138.012 22.9238 138.19 23.091 138.543 23.2507C139.089 23.5069 139.234 23.9192 138.94 24.3909C138.569 24.9925 138.662 25.2785 139.334 25.4754C140.006 25.6722 140.103 25.9545 139.858 26.6193C139.613 27.2841 139.698 27.4698 140.463 27.4661C141.169 27.4661 141.399 27.8375 141.091 28.5023C140.668 29.4048 140.879 29.7242 141.908 29.7354C142.937 29.7465 142.911 29.7354 143.052 30.7827C143.099 30.9138 143.174 31.0326 143.273 31.1304C143.372 31.2281 143.492 31.3023 143.624 31.3473C143.912 31.4151 144.214 31.4048 144.497 31.3176C145.013 31.1987 145.343 31.3881 145.44 31.8784C145.577 32.5655 146.031 32.5543 146.495 32.3575C147.171 32.0715 147.65 31.9861 147.836 32.922C147.932 33.4123 148.389 33.3454 148.734 33.1337C148.903 32.9916 149.049 32.8236 149.165 32.636C149.57 32.1495 149.953 32.1903 150.231 32.7512C150.289 32.9101 150.39 33.0499 150.523 33.155C150.655 33.2602 150.814 33.3266 150.982 33.347C151.15 33.3674 151.321 33.3409 151.475 33.2705C151.628 33.2001 151.76 33.0885 151.854 32.948C152.564 32.0381 152.675 32.0381 153.44 32.948C153.934 33.5423 154.766 33.3194 155.141 32.5098C155.55 31.6147 155.513 31.7075 156.486 32.0195C157.15 32.1824 157.84 32.2152 158.517 32.1161C159.319 32.0492 160.107 31.7855 160.909 31.7224C162.967 31.5664 165.054 31.221 167.082 31.4253C169.448 31.6592 171.851 31.9267 174.112 32.9109C175.451 33.4381 176.637 34.2908 177.563 35.3919C178.072 36.0307 178.306 36.9146 178.569 37.7131C178.71 38.118 178.45 38.3742 177.997 38.3259C177.465 38.2398 176.928 38.1828 176.389 38.1551C173.418 38.1811 170.447 38.2331 167.475 38.2814C166.859 38.2814 166.239 38.2814 165.618 38.3482C163.888 38.5116 162.157 38.6974 160.419 38.8756C159.464 38.9685 158.513 39.1096 157.555 39.1467C154.213 39.273 150.87 39.559 147.527 39.3993C145.199 39.2879 142.796 39.3584 140.526 38.4931C139.323 38.0362 138.031 37.8134 136.831 37.3529C134.601 36.4785 132.562 35.1778 130.829 33.5237C129.225 32.0121 127.713 30.3705 126.792 28.298C126.305 27.2061 125.551 26.1773 125.306 25.0371C124.935 23.2284 124.307 21.4122 124.63 19.518C125.002 17.3936 125.373 15.2655 126.283 13.2896C126.722 12.3104 127.236 11.3666 127.821 10.4669C127.961 10.3096 128.133 10.1829 128.324 10.0948C128.516 10.0066 128.724 9.95881 128.935 9.9544C131.401 9.90983 133.867 9.93583 136.333 9.92469C136.662 9.90842 136.989 9.8737 137.314 9.8207L137.303 9.52357Z"/>
</mask>
<path d="M137.303 9.52357C136.188 9.29701 135.074 9.07418 133.96 8.83648C133.44 8.74684 132.926 8.62277 132.422 8.46507C131.345 8.0751 130.268 7.68141 129.225 7.21345C128.464 6.88601 127.741 6.4789 127.067 5.99895C126.256 5.42382 125.509 4.76395 124.838 4.03051C124.095 3.20228 123.512 2.24405 122.732 1.16698C123.278 1.11127 123.576 1.05185 123.873 1.04814C127.821 1.04814 131.769 1.10756 135.713 1.00357C139.178 0.910721 142.64 0.632165 146.112 0.420465C147.806 0.3239 149.496 0.245904 151.189 0.164195C152.493 0.101057 153.789 -0.0103656 155.104 0.000776544C157.221 0.0193467 159.364 -0.0512259 161.448 0.238469C163.345 0.50588 165.191 1.16698 167.037 1.72408C168.164 2.01839 169.257 2.42915 170.298 2.94972C172.155 3.98594 174.075 4.9553 175.687 6.44092C176.845 7.51065 177.767 8.80965 178.395 10.2552C178.978 11.5423 179.421 12.8883 179.717 14.2701C180.15 16.4389 180.086 18.6778 179.528 20.818C178.967 23.1281 177.878 25.13 176.586 27.0613C176.393 27.3435 176.215 27.6332 175.999 27.9006C175.19 28.9369 174.142 29.1931 172.827 29.1634C169.113 29.0854 165.381 29.13 161.656 29.1374C161.11 29.1374 160.694 29.1151 160.716 28.3723C160.738 27.6852 161.043 27.4401 161.674 27.4661C161.896 27.4748 162.118 27.4686 162.339 27.4475C162.866 27.3955 163.004 27.0761 162.866 26.6081C162.799 26.3779 162.632 26.1736 162.547 25.947C162.38 25.4939 162.369 25.0743 162.874 24.8031C163.067 24.6991 163.245 24.584 163.442 24.4651C164.185 24.0009 164.616 23.6778 163.995 22.7121C163.375 21.7465 163.516 21.3454 164.523 20.9034C165.069 20.662 165.448 20.2274 165.329 19.7186C165.188 19.1885 164.874 18.7206 164.437 18.389C163.717 17.869 163.591 17.531 164.17 16.8179C164.95 15.8634 164.838 15.4289 163.706 14.9944C162.941 14.7009 162.718 13.8801 163.193 13.0928C163.728 12.2163 163.253 11.3509 162.202 11.3732C161.492 11.3732 161.232 11.1466 161.273 10.4261C161.325 9.531 160.864 9.07045 159.988 9.12988C159.29 9.17816 158.993 8.99246 159.045 8.23851C159.111 7.27658 158.71 6.99432 157.771 7.3063C157.084 7.52914 156.679 7.46599 156.486 6.6489C156.292 5.83182 155.657 5.71669 155 6.19208C154.101 6.82719 154.001 6.80861 153.451 5.92467C153.39 5.81948 153.304 5.73092 153.201 5.66677C153.097 5.60262 152.98 5.56485 152.858 5.55678C152.737 5.54871 152.615 5.57059 152.504 5.62049C152.393 5.67039 152.296 5.74679 152.222 5.84296C151.479 6.76405 151.479 6.76404 150.588 6.11408C150.016 5.70182 149.57 5.85782 149.392 6.53749C149.195 7.2803 148.842 7.39914 148.255 6.86803C147.297 6.0138 146.792 6.1438 146.357 7.362C146.116 8.03053 145.83 8.12338 145.21 7.68512C144.838 7.414 144.5 6.99803 143.988 7.39543C143.475 7.79283 143.524 8.27565 143.661 8.80676C143.862 9.54957 143.568 9.83927 142.796 9.63499C141.86 9.38615 141.492 9.72413 141.681 10.6526C141.811 11.3175 141.585 11.6109 140.909 11.648C140.688 11.646 140.467 11.6571 140.248 11.6814C139.62 11.8114 139.39 12.2905 139.676 12.8254C140.188 13.7761 139.917 14.285 138.844 14.4558C138.658 14.4855 138.369 14.6378 138.357 14.7529C138.342 14.8798 138.351 15.0085 138.386 15.1315C138.42 15.2546 138.479 15.3696 138.558 15.4697C139.074 15.9526 139.078 16.3351 138.469 16.7288C138.319 16.8137 138.162 16.887 138.001 16.9479C137.34 17.2265 137.258 17.5496 137.745 18.1104C138.391 18.8532 138.365 18.8532 137.67 19.5961C137.595 19.728 137.556 19.877 137.556 20.0287C137.556 20.1804 137.595 20.3295 137.67 20.4614C138.58 21.3194 138.636 21.3082 138.19 22.4596C138.012 22.9238 138.19 23.091 138.543 23.2507C139.089 23.5069 139.234 23.9192 138.94 24.3909C138.569 24.9925 138.662 25.2785 139.334 25.4754C140.006 25.6722 140.103 25.9545 139.858 26.6193C139.613 27.2841 139.698 27.4698 140.463 27.4661C141.169 27.4661 141.399 27.8375 141.091 28.5023C140.668 29.4048 140.879 29.7242 141.908 29.7354C142.937 29.7465 142.911 29.7354 143.052 30.7827C143.099 30.9138 143.174 31.0326 143.273 31.1304C143.372 31.2281 143.492 31.3023 143.624 31.3473C143.912 31.4151 144.214 31.4048 144.497 31.3176C145.013 31.1987 145.343 31.3881 145.44 31.8784C145.577 32.5655 146.031 32.5543 146.495 32.3575C147.171 32.0715 147.65 31.9861 147.836 32.922C147.932 33.4123 148.389 33.3454 148.734 33.1337C148.903 32.9916 149.049 32.8236 149.165 32.636C149.57 32.1495 149.953 32.1903 150.231 32.7512C150.289 32.9101 150.39 33.0499 150.523 33.155C150.655 33.2602 150.814 33.3266 150.982 33.347C151.15 33.3674 151.321 33.3409 151.475 33.2705C151.628 33.2001 151.76 33.0885 151.854 32.948C152.564 32.0381 152.675 32.0381 153.44 32.948C153.934 33.5423 154.766 33.3194 155.141 32.5098C155.55 31.6147 155.513 31.7075 156.486 32.0195C157.15 32.1824 157.84 32.2152 158.517 32.1161C159.319 32.0492 160.107 31.7855 160.909 31.7224C162.967 31.5664 165.054 31.221 167.082 31.4253C169.448 31.6592 171.851 31.9267 174.112 32.9109C175.451 33.4381 176.637 34.2908 177.563 35.3919C178.072 36.0307 178.306 36.9146 178.569 37.7131C178.71 38.118 178.45 38.3742 177.997 38.3259C177.465 38.2398 176.928 38.1828 176.389 38.1551C173.418 38.1811 170.447 38.2331 167.475 38.2814C166.859 38.2814 166.239 38.2814 165.618 38.3482C163.888 38.5116 162.157 38.6974 160.419 38.8756C159.464 38.9685 158.513 39.1096 157.555 39.1467C154.213 39.273 150.87 39.559 147.527 39.3993C145.199 39.2879 142.796 39.3584 140.526 38.4931C139.323 38.0362 138.031 37.8134 136.831 37.3529C134.601 36.4785 132.562 35.1778 130.829 33.5237C129.225 32.0121 127.713 30.3705 126.792 28.298C126.305 27.2061 125.551 26.1773 125.306 25.0371C124.935 23.2284 124.307 21.4122 124.63 19.518C125.002 17.3936 125.373 15.2655 126.283 13.2896C126.722 12.3104 127.236 11.3666 127.821 10.4669C127.961 10.3096 128.133 10.1829 128.324 10.0948C128.516 10.0066 128.724 9.95881 128.935 9.9544C131.401 9.90983 133.867 9.93583 136.333 9.92469C136.662 9.90842 136.989 9.8737 137.314 9.8207L137.303 9.52357Z" fill="#B1B1B1" stroke="#B1B1B1" stroke-width="2" mask="url(#path-3-inside-1_2029_2862)"/>
<path d="M150.995 18.6436H150.997C151.433 18.6382 151.854 18.8052 152.168 19.1074C152.443 19.3719 152.616 19.7216 152.663 20.0967L152.675 20.2461C152.675 20.6675 152.466 21.1406 152.117 21.5146C151.766 21.8915 151.341 22.0965 150.981 22.0928H150.977C150.698 22.0928 150.253 21.8725 149.842 21.4561C149.431 21.0403 149.211 20.5887 149.211 20.3057C149.211 20.022 149.414 19.6048 149.806 19.2305C150.192 18.861 150.646 18.646 150.995 18.6436Z" fill="#B1B1B1" stroke="#B1B1B1"/>
</svg>
