<svg width="124" height="43" viewBox="0 0 124 43" fill="none" xmlns="http://www.w3.org/2000/svg">
<path d="M29.7119 2.88623V9.98291H16.0762V19.6323H29.7119V27.2397H16.0762V41.2378L16.2178 41.3833L16.9268 42.1118H0.5V2.88623H29.7119Z" fill="#B1B1B1" stroke="#B1B1B1"/>
<path d="M56.542 13.9226L60.4268 13.9626L62.9082 16.4822V26.9421H57.6865V16.5876H54.002V26.9421H48.7383V16.4822L51.2188 13.9626L55.1035 13.9226H56.542Z" fill="#B1B1B1" stroke="#B1B1B1"/>
<path d="M94.0391 17.2036L97.499 17.2437L99.3398 19.0835V26.9419H95.5244V18.9731H92.6924V26.9419H91.1357V18.9731H88.2607V26.9419H84.4883V19.0835L86.3271 17.2446L90.6406 17.2036H94.0391Z" fill="#B1B1B1" stroke="#B1B1B1"/>
<path d="M114.85 17.7798H109.055V26.6636H114.015L113.736 26.9419H102.598V19.0864L104.475 17.2456L114.85 17.2046V17.7798Z" fill="#B1B1B1" stroke="#B1B1B1"/>
<path d="M79.9521 8.08496V26.8994H73.1318L68.4756 26.8174L66.6348 24.9766V16.6982L68.4727 14.8604H73.623V8.08496H79.9521ZM71.5342 16.8662L70.5117 18.1875L70.4072 18.3223V23.4795L70.5117 23.6152L71.5342 24.9355L71.6846 25.1299H73.5801V16.6729H71.6846L71.5342 16.8662Z" fill="#B1B1B1" stroke="#B1B1B1"/>
<path d="M38.168 12.5811L37.9746 12.4316C35.7823 10.7277 34.7403 9.1411 34.3555 7.75488C33.9727 6.37587 34.2222 5.13026 34.7402 4.06445C35.2622 2.99072 36.053 2.11006 36.7227 1.49805C37.0271 1.21981 37.3029 1.00195 37.5088 0.849609V7.44824L37.6025 7.5791C38.222 8.43937 38.8869 8.95332 39.5605 9.20898C40.2355 9.46508 40.8769 9.44567 41.4199 9.31152C41.9578 9.17861 42.4034 8.9322 42.71 8.72559C42.8645 8.62145 42.9876 8.5251 43.0732 8.45312C43.1159 8.41726 43.1498 8.3872 43.1738 8.36523C43.1859 8.35423 43.196 8.34463 43.2031 8.33789C43.2065 8.33464 43.2097 8.33224 43.2119 8.33008L43.2168 8.3252L43.3643 8.17969L43.3662 7.97363V7.92773C43.3665 7.8974 43.3676 7.85191 43.3682 7.79395C43.3693 7.67811 43.3711 7.50986 43.373 7.2998C43.377 6.87884 43.3824 6.28957 43.3877 5.61816C43.3953 4.66456 43.4015 3.54355 43.4053 2.5C44.9982 4.21287 45.8508 5.69128 46.2363 6.94043C46.6812 8.3822 46.5131 9.5433 46.1104 10.4561C45.7024 11.3807 45.0412 12.0772 44.4678 12.5469C44.183 12.7801 43.9246 12.9532 43.7393 13.0674C43.647 13.1242 43.5728 13.1663 43.5234 13.1934C43.4991 13.2067 43.4804 13.2166 43.4688 13.2227C43.463 13.2257 43.4583 13.2284 43.4561 13.2295H43.4541L43.1758 13.3672V28.2236C43.1132 28.2634 43.0259 28.3149 42.9053 28.3662C42.5519 28.5164 41.9169 28.6895 40.8633 28.6895C39.8285 28.6894 39.0994 28.4701 38.6396 28.2637C38.4277 28.1685 38.2719 28.074 38.168 28.0039V12.5811Z" fill="#B1B1B1" stroke="#B1B1B1"/>
<path d="M119.074 31.0525L113.376 32.3103L40.3525 32.0125H40.2686L40.1885 32.0398L30.7842 35.2673L39.8643 31.0525H119.074Z" fill="#B1B1B1" stroke="#B1B1B1"/>
<mask id="path-8-inside-1_2029_2868" fill="white">
<path d="M40.7812 36.9017H42.4431V41.2055H42.9544V36.9017H44.6163V36.4756H40.7812V36.9017Z"/>
</mask>
<path d="M40.7812 36.9017H42.4431V41.2055H42.9544V36.9017H44.6163V36.4756H40.7812V36.9017Z" fill="#B1B1B1"/>
<path d="M40.7812 36.9017H39.7812V37.9017H40.7812V36.9017ZM42.4431 36.9017H43.4431V35.9017H42.4431V36.9017ZM42.4431 41.2055H41.4431V42.2055H42.4431V41.2055ZM42.9544 41.2055V42.2055H43.9544V41.2055H42.9544ZM42.9544 36.9017V35.9017H41.9544V36.9017H42.9544ZM44.6163 36.9017V37.9017H45.6163V36.9017H44.6163ZM44.6163 36.4756H45.6163V35.4756H44.6163V36.4756ZM40.7812 36.4756V35.4756H39.7812V36.4756H40.7812ZM40.7812 36.9017V37.9017H42.4431V36.9017V35.9017H40.7812V36.9017ZM42.4431 36.9017H41.4431V41.2055H42.4431H43.4431V36.9017H42.4431ZM42.4431 41.2055V42.2055H42.9544V41.2055V40.2055H42.4431V41.2055ZM42.9544 41.2055H43.9544V36.9017H42.9544H41.9544V41.2055H42.9544ZM42.9544 36.9017V37.9017H44.6163V36.9017V35.9017H42.9544V36.9017ZM44.6163 36.9017H45.6163V36.4756H44.6163H43.6163V36.9017H44.6163ZM44.6163 36.4756V35.4756H40.7812V36.4756V37.4756H44.6163V36.4756ZM40.7812 36.4756H39.7812V36.9017H40.7812H41.7812V36.4756H40.7812Z" fill="#B1B1B1" mask="url(#path-8-inside-1_2029_2868)"/>
<mask id="path-10-inside-2_2029_2868" fill="white">
<path d="M48.7045 36.7311C48.321 36.5181 47.8949 36.4329 47.4262 36.4329C46.9575 36.4329 46.5314 36.5181 46.1478 36.7311C45.7643 36.9442 45.4661 37.2425 45.253 37.5834C45.0399 37.9669 44.9121 38.3504 44.9121 38.8191C44.9121 39.2878 45.0399 39.6713 45.253 40.0549C45.4661 40.4384 45.7643 40.694 46.1478 40.9071C46.5314 41.1201 46.9575 41.2054 47.4262 41.2054C47.8949 41.2054 48.321 41.1201 48.7045 40.9071C49.0881 40.694 49.3863 40.3957 49.5994 40.0549C49.8125 39.6713 49.9403 39.2878 49.9403 38.8191C49.9403 38.3504 49.8125 37.9669 49.5994 37.5834C49.3863 37.2425 49.0881 36.9442 48.7045 36.7311ZM49.1733 39.8418C49.0028 40.1401 48.7472 40.3958 48.4489 40.5662C48.1506 40.7366 47.8097 40.8219 47.4262 40.8219C47.0427 40.8219 46.7018 40.7366 46.4035 40.5662C46.1052 40.3958 45.8496 40.1827 45.6791 39.8418C45.5087 39.5435 45.4235 39.2026 45.4235 38.8191C45.4235 38.4356 45.5087 38.0947 45.6791 37.7964C45.8496 37.4982 46.1052 37.2425 46.4035 37.072C46.7018 36.9016 47.0427 36.8164 47.4262 36.8164C47.8097 36.8164 48.1506 36.9016 48.4489 37.072C48.7472 37.2425 49.0028 37.4555 49.1733 37.7964C49.3437 38.0947 49.429 38.4356 49.429 38.8191C49.429 39.2026 49.3437 39.5435 49.1733 39.8418Z"/>
</mask>
<path d="M48.7045 36.7311C48.321 36.5181 47.8949 36.4329 47.4262 36.4329C46.9575 36.4329 46.5314 36.5181 46.1478 36.7311C45.7643 36.9442 45.4661 37.2425 45.253 37.5834C45.0399 37.9669 44.9121 38.3504 44.9121 38.8191C44.9121 39.2878 45.0399 39.6713 45.253 40.0549C45.4661 40.4384 45.7643 40.694 46.1478 40.9071C46.5314 41.1201 46.9575 41.2054 47.4262 41.2054C47.8949 41.2054 48.321 41.1201 48.7045 40.9071C49.0881 40.694 49.3863 40.3957 49.5994 40.0549C49.8125 39.6713 49.9403 39.2878 49.9403 38.8191C49.9403 38.3504 49.8125 37.9669 49.5994 37.5834C49.3863 37.2425 49.0881 36.9442 48.7045 36.7311ZM49.1733 39.8418C49.0028 40.1401 48.7472 40.3958 48.4489 40.5662C48.1506 40.7366 47.8097 40.8219 47.4262 40.8219C47.0427 40.8219 46.7018 40.7366 46.4035 40.5662C46.1052 40.3958 45.8496 40.1827 45.6791 39.8418C45.5087 39.5435 45.4235 39.2026 45.4235 38.8191C45.4235 38.4356 45.5087 38.0947 45.6791 37.7964C45.8496 37.4982 46.1052 37.2425 46.4035 37.072C46.7018 36.9016 47.0427 36.8164 47.4262 36.8164C47.8097 36.8164 48.1506 36.9016 48.4489 37.072C48.7472 37.2425 49.0028 37.4555 49.1733 37.7964C49.3437 38.0947 49.429 38.4356 49.429 38.8191C49.429 39.2026 49.3437 39.5435 49.1733 39.8418Z" fill="#B1B1B1"/>
<path d="M45.253 37.5834L44.405 37.0534L44.3914 37.0752L44.3788 37.0977L45.253 37.5834ZM49.5994 40.0549L50.4474 40.5849L50.461 40.563L50.4736 40.5405L49.5994 40.0549ZM49.5994 37.5834L50.4736 37.0977L50.461 37.0752L50.4474 37.0534L49.5994 37.5834ZM45.6791 39.8418L46.5735 39.3946L46.5611 39.3698L46.5474 39.3457L45.6791 39.8418ZM49.1733 37.7964L48.2789 38.2437L48.2913 38.2685L48.305 38.2926L49.1733 37.7964ZM48.7045 36.7311L49.1902 35.857C48.6217 35.5412 48.0177 35.4329 47.4262 35.4329V36.4329V37.4329C47.7721 37.4329 48.0203 37.495 48.2189 37.6053L48.7045 36.7311ZM47.4262 36.4329V35.4329C46.8347 35.4329 46.2307 35.5412 45.6622 35.857L46.1478 36.7311L46.6335 37.6053C46.8321 37.495 47.0803 37.4329 47.4262 37.4329V36.4329ZM46.1478 36.7311L45.6622 35.857C45.1217 36.1572 44.7022 36.5779 44.405 37.0534L45.253 37.5834L46.101 38.1134C46.23 37.9071 46.4069 37.7312 46.6335 37.6053L46.1478 36.7311ZM45.253 37.5834L44.3788 37.0977C44.1032 37.594 43.9121 38.1437 43.9121 38.8191H44.9121H45.9121C45.9121 38.5571 45.9767 38.3398 46.1272 38.069L45.253 37.5834ZM44.9121 38.8191H43.9121C43.9121 39.4945 44.1032 40.0443 44.3788 40.5405L45.253 40.0549L46.1272 39.5692C45.9767 39.2984 45.9121 39.0811 45.9121 38.8191H44.9121ZM45.253 40.0549L44.3788 40.5405C44.7059 41.1292 45.1632 41.504 45.6622 41.7812L46.1478 40.9071L46.6335 40.0329C46.3655 39.884 46.2262 39.7475 46.1272 39.5692L45.253 40.0549ZM46.1478 40.9071L45.6622 41.7812C46.2307 42.0971 46.8347 42.2054 47.4262 42.2054V41.2054V40.2054C47.0803 40.2054 46.8321 40.1432 46.6335 40.0329L46.1478 40.9071ZM47.4262 41.2054V42.2054C48.0177 42.2054 48.6217 42.0971 49.1902 41.7812L48.7045 40.9071L48.2189 40.0329C48.0203 40.1432 47.7721 40.2054 47.4262 40.2054V41.2054ZM48.7045 40.9071L49.1902 41.7812C49.7306 41.481 50.1502 41.0603 50.4474 40.5849L49.5994 40.0549L48.7514 39.5249C48.6224 39.7312 48.4455 39.9071 48.2189 40.0329L48.7045 40.9071ZM49.5994 40.0549L50.4736 40.5405C50.7492 40.0443 50.9403 39.4946 50.9403 38.8191H49.9403H48.9403C48.9403 39.0811 48.8757 39.2984 48.7252 39.5692L49.5994 40.0549ZM49.9403 38.8191H50.9403C50.9403 38.1437 50.7492 37.594 50.4736 37.0977L49.5994 37.5834L48.7252 38.069C48.8757 38.3398 48.9403 38.5571 48.9403 38.8191H49.9403ZM49.5994 37.5834L50.4474 37.0534C50.1502 36.5779 49.7306 36.1572 49.1902 35.857L48.7045 36.7311L48.2189 37.6053C48.4455 37.7312 48.6224 37.9071 48.7514 38.1134L49.5994 37.5834ZM49.1733 39.8418L48.305 39.3457C48.2232 39.4889 48.096 39.6161 47.9527 39.698L48.4489 40.5662L48.945 41.4344C49.3984 41.1754 49.7825 40.7912 50.0415 40.3379L49.1733 39.8418ZM48.4489 40.5662L47.9527 39.698C47.8226 39.7723 47.6564 39.8219 47.4262 39.8219V40.8219V41.8219C47.963 41.8219 48.4786 41.701 48.945 41.4344L48.4489 40.5662ZM47.4262 40.8219V39.8219C47.196 39.8219 47.0298 39.7723 46.8997 39.698L46.4035 40.5662L45.9074 41.4344C46.3738 41.701 46.8894 41.8219 47.4262 41.8219V40.8219ZM46.4035 40.5662L46.8997 39.698C46.7074 39.5881 46.6272 39.5018 46.5735 39.3946L45.6791 39.8418L44.7847 40.289C45.072 40.8636 45.5031 41.2034 45.9074 41.4344L46.4035 40.5662ZM45.6791 39.8418L46.5474 39.3457C46.473 39.2155 46.4235 39.0493 46.4235 38.8191H45.4235H44.4235C44.4235 39.356 44.5444 39.8716 44.8109 40.3379L45.6791 39.8418ZM45.4235 38.8191H46.4235C46.4235 38.5889 46.473 38.4228 46.5474 38.2926L45.6791 37.7964L44.8109 37.3003C44.5444 37.7667 44.4235 38.2823 44.4235 38.8191H45.4235ZM45.6791 37.7964L46.5474 38.2926C46.6292 38.1493 46.7564 38.0221 46.8997 37.9403L46.4035 37.072L45.9074 36.2038C45.4541 36.4628 45.0699 36.847 44.8109 37.3003L45.6791 37.7964ZM46.4035 37.072L46.8997 37.9403C47.0298 37.8659 47.196 37.8164 47.4262 37.8164V36.8164V35.8164C46.8893 35.8164 46.3738 35.9373 45.9074 36.2038L46.4035 37.072ZM47.4262 36.8164V37.8164C47.6564 37.8164 47.8226 37.8659 47.9527 37.9403L48.4489 37.072L48.945 36.2038C48.4786 35.9373 47.963 35.8164 47.4262 35.8164V36.8164ZM48.4489 37.072L47.9527 37.9403C48.145 38.0501 48.2252 38.1364 48.2789 38.2437L49.1733 37.7964L50.0677 37.3492C49.7804 36.7747 49.3493 36.4348 48.945 36.2038L48.4489 37.072ZM49.1733 37.7964L48.305 38.2926C48.3794 38.4228 48.429 38.589 48.429 38.8191H49.429H50.429C50.429 38.2823 50.308 37.7667 50.0415 37.3003L49.1733 37.7964ZM49.429 38.8191H48.429C48.429 39.0493 48.3794 39.2155 48.305 39.3457L49.1733 39.8418L50.0415 40.3379C50.308 39.8716 50.429 39.356 50.429 38.8191H49.429Z" fill="#B1B1B1" mask="url(#path-10-inside-2_2029_2868)"/>
<mask id="path-12-inside-3_2029_2868" fill="white">
<path d="M54.3745 36.7311C53.991 36.5181 53.5648 36.4329 53.0961 36.4329C52.6274 36.4329 52.2013 36.5181 51.8178 36.7311C51.4343 36.9442 51.136 37.2425 50.9229 37.5834C50.7099 37.9669 50.582 38.3504 50.582 38.8191C50.582 39.2878 50.7099 39.6713 50.9229 40.0549C51.136 40.4384 51.4343 40.694 51.8178 40.9071C52.2013 41.1201 52.6274 41.2054 53.0961 41.2054C53.5648 41.2054 53.991 41.1201 54.3745 40.9071C54.758 40.694 55.0563 40.3957 55.2693 40.0549C55.4824 39.6713 55.6102 39.2878 55.6102 38.8191C55.6102 38.3504 55.4824 37.9669 55.2693 37.5834C55.0563 37.2425 54.758 36.9442 54.3745 36.7311ZM54.8432 39.8418C54.6728 40.1401 54.4171 40.3958 54.1188 40.5662C53.8205 40.7366 53.4796 40.8219 53.0961 40.8219C52.7126 40.8219 52.3717 40.7366 52.0734 40.5662C51.7752 40.3958 51.5195 40.1827 51.349 39.8418C51.1786 39.5435 51.0934 39.2026 51.0934 38.8191C51.0934 38.4356 51.1786 38.0947 51.349 37.7964C51.5195 37.4982 51.7752 37.2425 52.0734 37.072C52.3717 36.9016 52.7126 36.8164 53.0961 36.8164C53.4796 36.8164 53.8205 36.9016 54.1188 37.072C54.4171 37.2425 54.6728 37.4555 54.8432 37.7964C55.0136 38.0947 55.0989 38.4356 55.0989 38.8191C55.0989 39.2026 55.0136 39.5435 54.8432 39.8418Z"/>
</mask>
<path d="M54.3745 36.7311C53.991 36.5181 53.5648 36.4329 53.0961 36.4329C52.6274 36.4329 52.2013 36.5181 51.8178 36.7311C51.4343 36.9442 51.136 37.2425 50.9229 37.5834C50.7099 37.9669 50.582 38.3504 50.582 38.8191C50.582 39.2878 50.7099 39.6713 50.9229 40.0549C51.136 40.4384 51.4343 40.694 51.8178 40.9071C52.2013 41.1201 52.6274 41.2054 53.0961 41.2054C53.5648 41.2054 53.991 41.1201 54.3745 40.9071C54.758 40.694 55.0563 40.3957 55.2693 40.0549C55.4824 39.6713 55.6102 39.2878 55.6102 38.8191C55.6102 38.3504 55.4824 37.9669 55.2693 37.5834C55.0563 37.2425 54.758 36.9442 54.3745 36.7311ZM54.8432 39.8418C54.6728 40.1401 54.4171 40.3958 54.1188 40.5662C53.8205 40.7366 53.4796 40.8219 53.0961 40.8219C52.7126 40.8219 52.3717 40.7366 52.0734 40.5662C51.7752 40.3958 51.5195 40.1827 51.349 39.8418C51.1786 39.5435 51.0934 39.2026 51.0934 38.8191C51.0934 38.4356 51.1786 38.0947 51.349 37.7964C51.5195 37.4982 51.7752 37.2425 52.0734 37.072C52.3717 36.9016 52.7126 36.8164 53.0961 36.8164C53.4796 36.8164 53.8205 36.9016 54.1188 37.072C54.4171 37.2425 54.6728 37.4555 54.8432 37.7964C55.0136 38.0947 55.0989 38.4356 55.0989 38.8191C55.0989 39.2026 55.0136 39.5435 54.8432 39.8418Z" fill="#B1B1B1"/>
<path d="M50.9229 37.5834L50.0749 37.0534L50.0613 37.0752L50.0488 37.0977L50.9229 37.5834ZM55.2693 40.0549L56.1173 40.5849L56.131 40.563L56.1435 40.5405L55.2693 40.0549ZM55.2693 37.5834L56.1435 37.0977L56.131 37.0752L56.1173 37.0534L55.2693 37.5834ZM51.349 39.8418L52.2435 39.3946L52.2311 39.3698L52.2173 39.3457L51.349 39.8418ZM54.8432 37.7964L53.9488 38.2437L53.9612 38.2685L53.975 38.2926L54.8432 37.7964ZM54.3745 36.7311L54.8601 35.857C54.2917 35.5412 53.6876 35.4329 53.0961 35.4329V36.4329V37.4329C53.442 37.4329 53.6903 37.495 53.8888 37.6053L54.3745 36.7311ZM53.0961 36.4329V35.4329C52.5046 35.4329 51.9006 35.5412 51.3321 35.857L51.8178 36.7311L52.3034 37.6053C52.502 37.495 52.7502 37.4329 53.0961 37.4329V36.4329ZM51.8178 36.7311L51.3321 35.857C50.7917 36.1572 50.3721 36.5779 50.0749 37.0534L50.9229 37.5834L51.7709 38.1134C51.8999 37.9071 52.0768 37.7312 52.3034 37.6053L51.8178 36.7311ZM50.9229 37.5834L50.0488 37.0977C49.7731 37.594 49.582 38.1437 49.582 38.8191H50.582H51.582C51.582 38.5571 51.6467 38.3398 51.7971 38.069L50.9229 37.5834ZM50.582 38.8191H49.582C49.582 39.4945 49.7731 40.0443 50.0488 40.5405L50.9229 40.0549L51.7971 39.5692C51.6467 39.2984 51.582 39.0812 51.582 38.8191H50.582ZM50.9229 40.0549L50.0488 40.5405C50.3758 41.1292 50.8332 41.504 51.3321 41.7812L51.8178 40.9071L52.3034 40.0329C52.0354 39.884 51.8961 39.7475 51.7971 39.5692L50.9229 40.0549ZM51.8178 40.9071L51.3321 41.7812C51.9006 42.0971 52.5046 42.2054 53.0961 42.2054V41.2054V40.2054C52.7502 40.2054 52.502 40.1432 52.3034 40.0329L51.8178 40.9071ZM53.0961 41.2054V42.2054C53.6876 42.2054 54.2917 42.0971 54.8601 41.7812L54.3745 40.9071L53.8888 40.0329C53.6903 40.1432 53.442 40.2054 53.0961 40.2054V41.2054ZM54.3745 40.9071L54.8601 41.7812C55.4006 41.481 55.8201 41.0603 56.1173 40.5849L55.2693 40.0549L54.4213 39.5249C54.2924 39.7312 54.1154 39.9071 53.8888 40.0329L54.3745 40.9071ZM55.2693 40.0549L56.1435 40.5405C56.4192 40.0443 56.6102 39.4945 56.6102 38.8191H55.6102H54.6102C54.6102 39.0812 54.5456 39.2984 54.3952 39.5692L55.2693 40.0549ZM55.6102 38.8191H56.6102C56.6102 38.1437 56.4192 37.594 56.1435 37.0977L55.2693 37.5834L54.3952 38.069C54.5456 38.3398 54.6102 38.5571 54.6102 38.8191H55.6102ZM55.2693 37.5834L56.1173 37.0534C55.8201 36.5779 55.4006 36.1572 54.8601 35.857L54.3745 36.7311L53.8888 37.6053C54.1154 37.7312 54.2924 37.9071 54.4213 38.1134L55.2693 37.5834ZM54.8432 39.8418L53.975 39.3457C53.8931 39.4889 53.7659 39.6161 53.6227 39.698L54.1188 40.5662L54.6149 41.4344C55.0682 41.1754 55.4524 40.7912 55.7114 40.3379L54.8432 39.8418ZM54.1188 40.5662L53.6227 39.698C53.4925 39.7723 53.3263 39.8219 53.0961 39.8219V40.8219V41.8219C53.6329 41.8219 54.1485 41.701 54.6149 41.4344L54.1188 40.5662ZM53.0961 40.8219V39.8219C52.8659 39.8219 52.6997 39.7723 52.5696 39.698L52.0734 40.5662L51.5773 41.4344C52.0437 41.701 52.5593 41.8219 53.0961 41.8219V40.8219ZM52.0734 40.5662L52.5696 39.698C52.3773 39.5881 52.2971 39.5018 52.2435 39.3946L51.349 39.8418L50.4546 40.289C50.7419 40.8636 51.173 41.2034 51.5773 41.4344L52.0734 40.5662ZM51.349 39.8418L52.2173 39.3457C52.1429 39.2155 52.0934 39.0493 52.0934 38.8191H51.0934H50.0934C50.0934 39.356 50.2143 39.8716 50.4808 40.3379L51.349 39.8418ZM51.0934 38.8191H52.0934C52.0934 38.589 52.1429 38.4228 52.2173 38.2926L51.349 37.7964L50.4808 37.3003C50.2143 37.7667 50.0934 38.2823 50.0934 38.8191H51.0934ZM51.349 37.7964L52.2173 38.2926C52.2991 38.1493 52.4263 38.0221 52.5696 37.9403L52.0734 37.072L51.5773 36.2038C51.124 36.4628 50.7398 36.847 50.4808 37.3003L51.349 37.7964ZM52.0734 37.072L52.5696 37.9403C52.6998 37.8659 52.866 37.8164 53.0961 37.8164V36.8164V35.8164C52.5593 35.8164 52.0437 35.9373 51.5773 36.2038L52.0734 37.072ZM53.0961 36.8164V37.8164C53.3263 37.8164 53.4925 37.8659 53.6227 37.9403L54.1188 37.072L54.6149 36.2038C54.1486 35.9373 53.633 35.8164 53.0961 35.8164V36.8164ZM54.1188 37.072L53.6227 37.9403C53.8149 38.0501 53.8952 38.1364 53.9488 38.2437L54.8432 37.7964L55.7376 37.3492C55.4503 36.7747 55.0192 36.4348 54.6149 36.2038L54.1188 37.072ZM54.8432 37.7964L53.975 38.2926C54.0493 38.4227 54.0989 38.5889 54.0989 38.8191H55.0989H56.0989C56.0989 38.2823 55.978 37.7667 55.7114 37.3003L54.8432 37.7964ZM55.0989 38.8191H54.0989C54.0989 39.0493 54.0493 39.2155 53.975 39.3457L54.8432 39.8418L55.7114 40.3379C55.978 39.8715 56.0989 39.3559 56.0989 38.8191H55.0989Z" fill="#B1B1B1" mask="url(#path-12-inside-3_2029_2868)"/>
<mask id="path-14-inside-4_2029_2868" fill="white">
<path d="M57.2281 36.4756H56.7168V41.2055H59.8701V40.7794H57.2281V36.4756Z"/>
</mask>
<path d="M57.2281 36.4756H56.7168V41.2055H59.8701V40.7794H57.2281V36.4756Z" fill="#B1B1B1"/>
<path d="M57.2281 36.4756H58.2281V35.4756H57.2281V36.4756ZM56.7168 36.4756V35.4756H55.7168V36.4756H56.7168ZM56.7168 41.2055H55.7168V42.2055H56.7168V41.2055ZM59.8701 41.2055V42.2055H60.8701V41.2055H59.8701ZM59.8701 40.7794H60.8701V39.7794H59.8701V40.7794ZM57.2281 40.7794H56.2281V41.7794H57.2281V40.7794ZM57.2281 36.4756V35.4756H56.7168V36.4756V37.4756H57.2281V36.4756ZM56.7168 36.4756H55.7168V41.2055H56.7168H57.7168V36.4756H56.7168ZM56.7168 41.2055V42.2055H59.8701V41.2055V40.2055H56.7168V41.2055ZM59.8701 41.2055H60.8701V40.7794H59.8701H58.8701V41.2055H59.8701ZM59.8701 40.7794V39.7794H57.2281V40.7794V41.7794H59.8701V40.7794ZM57.2281 40.7794H58.2281V36.4756H57.2281H56.2281V40.7794H57.2281Z" fill="#B1B1B1" mask="url(#path-14-inside-4_2029_2868)"/>
<mask id="path-16-inside-5_2029_2868" fill="white">
<path d="M62.9787 38.8618C62.7657 38.7765 62.4674 38.6913 62.1265 38.6061C61.8282 38.5209 61.6152 38.4782 61.4447 38.393C61.2743 38.3504 61.1465 38.2226 61.0186 38.1374C60.8908 38.0095 60.8482 37.8817 60.8482 37.6686C60.8482 37.413 60.9334 37.1999 61.1464 37.0294C61.3595 36.859 61.6578 36.7738 62.0839 36.7738C62.297 36.7738 62.51 36.8164 62.7657 36.859C62.9787 36.9442 63.1918 37.0295 63.4049 37.1573L63.5753 36.7738C63.4049 36.6459 63.1492 36.5607 62.8935 36.4755C62.6379 36.3903 62.3822 36.3477 62.0839 36.3477C61.7004 36.3477 61.3595 36.3903 61.1038 36.5181C60.8482 36.6459 60.6351 36.7738 60.5073 36.9868C60.3794 37.1999 60.3368 37.4129 60.3368 37.626C60.3368 37.9243 60.4221 38.1373 60.5499 38.3078C60.7203 38.4782 60.8908 38.6061 61.1038 38.6913C61.3169 38.7765 61.6152 38.8617 61.9561 38.947C62.2543 39.0322 62.4674 39.0748 62.6379 39.16C62.8083 39.2026 62.9361 39.2879 63.064 39.4157C63.1918 39.5435 63.2344 39.6714 63.2344 39.8844C63.2344 40.1401 63.1492 40.3532 62.9361 40.481C62.7231 40.6514 62.4248 40.6941 61.9987 40.6941C61.7004 40.6941 61.4021 40.6514 61.1038 40.5236C60.8056 40.4384 60.5925 40.2679 60.422 40.0975L60.209 40.481C60.3794 40.6514 60.6351 40.8219 60.976 40.9497C61.3169 41.0776 61.6578 41.1202 61.9987 41.1202C62.3822 41.1202 62.7231 41.0776 62.9787 40.9497C63.2344 40.8219 63.4475 40.6941 63.5753 40.481C63.7032 40.2679 63.7884 40.0549 63.7884 39.8418C63.7884 39.5435 63.7032 39.3305 63.5753 39.16C63.3623 39.0748 63.1918 38.947 62.9787 38.8618Z"/>
</mask>
<path d="M62.9787 38.8618C62.7657 38.7765 62.4674 38.6913 62.1265 38.6061C61.8282 38.5209 61.6152 38.4782 61.4447 38.393C61.2743 38.3504 61.1465 38.2226 61.0186 38.1374C60.8908 38.0095 60.8482 37.8817 60.8482 37.6686C60.8482 37.413 60.9334 37.1999 61.1464 37.0294C61.3595 36.859 61.6578 36.7738 62.0839 36.7738C62.297 36.7738 62.51 36.8164 62.7657 36.859C62.9787 36.9442 63.1918 37.0295 63.4049 37.1573L63.5753 36.7738C63.4049 36.6459 63.1492 36.5607 62.8935 36.4755C62.6379 36.3903 62.3822 36.3477 62.0839 36.3477C61.7004 36.3477 61.3595 36.3903 61.1038 36.5181C60.8482 36.6459 60.6351 36.7738 60.5073 36.9868C60.3794 37.1999 60.3368 37.4129 60.3368 37.626C60.3368 37.9243 60.4221 38.1373 60.5499 38.3078C60.7203 38.4782 60.8908 38.6061 61.1038 38.6913C61.3169 38.7765 61.6152 38.8617 61.9561 38.947C62.2543 39.0322 62.4674 39.0748 62.6379 39.16C62.8083 39.2026 62.9361 39.2879 63.064 39.4157C63.1918 39.5435 63.2344 39.6714 63.2344 39.8844C63.2344 40.1401 63.1492 40.3532 62.9361 40.481C62.7231 40.6514 62.4248 40.6941 61.9987 40.6941C61.7004 40.6941 61.4021 40.6514 61.1038 40.5236C60.8056 40.4384 60.5925 40.2679 60.422 40.0975L60.209 40.481C60.3794 40.6514 60.6351 40.8219 60.976 40.9497C61.3169 41.0776 61.6578 41.1202 61.9987 41.1202C62.3822 41.1202 62.7231 41.0776 62.9787 40.9497C63.2344 40.8219 63.4475 40.6941 63.5753 40.481C63.7032 40.2679 63.7884 40.0549 63.7884 39.8418C63.7884 39.5435 63.7032 39.3305 63.5753 39.16C63.3623 39.0748 63.1918 38.947 62.9787 38.8618Z" fill="#B1B1B1"/>
<path d="M62.1265 38.6061L61.8518 39.5676L61.8678 39.5722L61.884 39.5762L62.1265 38.6061ZM61.4447 38.393L61.8919 37.4986L61.7938 37.4495L61.6873 37.4229L61.4447 38.393ZM61.0186 38.1374L60.3115 38.8445L60.3815 38.9145L60.4639 38.9694L61.0186 38.1374ZM62.7657 36.859L63.1371 35.9305L63.0367 35.8904L62.9301 35.8726L62.7657 36.859ZM63.4049 37.1573L62.8904 38.0148L63.8596 38.5963L64.3187 37.5634L63.4049 37.1573ZM63.5753 36.7738L64.4891 37.1799L64.8127 36.4518L64.1753 35.9738L63.5753 36.7738ZM60.5499 38.3078L59.7499 38.9078L59.7925 38.9647L59.8428 39.0149L60.5499 38.3078ZM61.9561 38.947L62.2308 37.9854L62.2148 37.9809L62.1986 37.9768L61.9561 38.947ZM62.6379 39.16L62.1906 40.0545L62.2888 40.1035L62.3953 40.1302L62.6379 39.16ZM62.9361 40.481L62.4216 39.6235L62.364 39.6581L62.3114 39.7001L62.9361 40.481ZM61.1038 40.5236L61.4978 39.6045L61.4395 39.5795L61.3786 39.5621L61.1038 40.5236ZM60.422 40.0975L61.1291 39.3904L60.1917 38.453L59.5479 39.6118L60.422 40.0975ZM60.209 40.481L59.3348 39.9953L58.9685 40.6547L59.5019 41.1881L60.209 40.481ZM63.5753 39.16L64.3753 38.56L64.2071 38.3357L63.9467 38.2316L63.5753 39.16ZM62.9787 38.8618L63.3501 37.9333C63.0701 37.8212 62.716 37.7227 62.369 37.6359L62.1265 38.6061L61.884 39.5762C62.2188 39.6599 62.4613 39.7318 62.6074 39.7902L62.9787 38.8618ZM62.1265 38.6061L62.4012 37.6446C62.3181 37.6208 62.2419 37.6003 62.177 37.5829C62.1093 37.5648 62.0586 37.5512 62.0124 37.538C61.9673 37.5251 61.9377 37.5157 61.9167 37.5083C61.8965 37.5011 61.8901 37.4977 61.8919 37.4986L61.4447 38.393L60.9975 39.2875C61.1672 39.3723 61.3345 39.4244 61.463 39.4611C61.5286 39.4798 61.5978 39.4983 61.6592 39.5147C61.7235 39.532 61.7858 39.5488 61.8518 39.5676L62.1265 38.6061ZM61.4447 38.393L61.6873 37.4229C61.7712 37.4439 61.8119 37.4777 61.7849 37.459C61.7708 37.4492 61.7555 37.4377 61.7178 37.4092C61.6873 37.3862 61.6332 37.3452 61.5733 37.3053L61.0186 38.1374L60.4639 38.9694C60.4639 38.9694 60.464 38.9694 60.4641 38.9695C60.4643 38.9696 60.4645 38.9698 60.4647 38.97C60.4653 38.9703 60.4661 38.9709 60.4672 38.9717C60.4694 38.9732 60.4725 38.9755 60.4767 38.9785C60.4858 38.9851 60.4963 38.9931 60.5126 39.0053C60.5401 39.0261 60.5914 39.0652 60.6465 39.1034C60.758 39.1805 60.9478 39.2996 61.2022 39.3632L61.4447 38.393ZM61.0186 38.1374L61.7257 37.4302C61.7332 37.4377 61.7516 37.4574 61.7727 37.4893C61.7945 37.5224 61.8133 37.5598 61.8272 37.5986C61.8538 37.673 61.8482 37.7142 61.8482 37.6686H60.8482H59.8482C59.8482 37.8361 59.8639 38.0477 59.9437 38.2713C60.0286 38.5089 60.1622 38.6952 60.3115 38.8445L61.0186 38.1374ZM60.8482 37.6686H61.8482C61.8482 37.6528 61.8504 37.6806 61.8293 37.7274C61.8193 37.7498 61.8068 37.7698 61.794 37.786C61.7815 37.8018 61.7722 37.8095 61.7711 37.8103L61.1464 37.0294L60.5218 36.2486C60.0432 36.6314 59.8482 37.1474 59.8482 37.6686H60.8482ZM61.1464 37.0294L61.7711 37.8103C61.739 37.836 61.7792 37.7738 62.0839 37.7738V36.7738V35.7738C61.5364 35.7738 60.98 35.882 60.5218 36.2486L61.1464 37.0294ZM62.0839 36.7738V37.7738C62.191 37.7738 62.2936 37.7941 62.6013 37.8454L62.7657 36.859L62.9301 35.8726C62.7264 35.8387 62.4029 35.7738 62.0839 35.7738V36.7738ZM62.7657 36.859L62.3943 37.7875C62.6155 37.8759 62.756 37.9342 62.8904 38.0148L63.4049 37.1573L63.9194 36.2998C63.6276 36.1247 63.342 36.0125 63.1371 35.9305L62.7657 36.859ZM63.4049 37.1573L64.3187 37.5634L64.4891 37.1799L63.5753 36.7738L62.6615 36.3676L62.4911 36.7511L63.4049 37.1573ZM63.5753 36.7738L64.1753 35.9738C63.8467 35.7273 63.4116 35.5941 63.2098 35.5268L62.8935 36.4755L62.5773 37.4242C62.7119 37.469 62.807 37.5012 62.8878 37.5342C62.9708 37.5682 62.9883 37.5835 62.9753 37.5738L63.5753 36.7738ZM62.8935 36.4755L63.2098 35.5268C62.8493 35.4067 62.4867 35.3477 62.0839 35.3477V36.3477V37.3477C62.2777 37.3477 62.4264 37.3739 62.5773 37.4242L62.8935 36.4755ZM62.0839 36.3477V35.3477C61.6586 35.3477 61.1258 35.3891 60.6566 35.6237L61.1038 36.5181L61.551 37.4125C61.5932 37.3914 61.7422 37.3477 62.0839 37.3477V36.3477ZM61.1038 36.5181L60.6566 35.6237C60.3964 35.7538 59.9399 35.9887 59.6498 36.4723L60.5073 36.9868L61.3648 37.5013C61.3448 37.5345 61.3281 37.5423 61.3508 37.5256C61.3809 37.5034 61.4358 37.4702 61.551 37.4125L61.1038 36.5181ZM60.5073 36.9868L59.6498 36.4723C59.4116 36.8694 59.3368 37.2682 59.3368 37.626H60.3368H61.3368C61.3368 37.5866 61.3407 37.5631 61.3443 37.5489C61.3474 37.5362 61.3526 37.5216 61.3648 37.5013L60.5073 36.9868ZM60.3368 37.626H59.3368C59.3368 38.1407 59.4922 38.5643 59.7499 38.9078L60.5499 38.3078L61.3499 37.7078C61.3461 37.7027 61.3448 37.7003 61.3447 37.7001C61.3446 37.7 61.3445 37.6998 61.3441 37.6986C61.3439 37.6981 61.3368 37.678 61.3368 37.626H60.3368ZM60.5499 38.3078L59.8428 39.0149C60.0761 39.2482 60.3567 39.4695 60.7324 39.6198L61.1038 38.6913L61.4752 37.7628C61.4249 37.7427 61.3646 37.7083 61.257 37.6007L60.5499 38.3078ZM61.1038 38.6913L60.7324 39.6198C61.0125 39.7318 61.3666 39.8304 61.7135 39.9171L61.9561 38.947L62.1986 37.9768C61.8637 37.8931 61.6213 37.8212 61.4752 37.7628L61.1038 38.6913ZM61.9561 38.947L61.6813 39.9085C61.7645 39.9323 61.8407 39.9527 61.9056 39.9701C61.9733 39.9883 62.024 40.0018 62.0702 40.015C62.1153 40.0279 62.1449 40.0374 62.1658 40.0448C62.1861 40.052 62.1925 40.0554 62.1906 40.0545L62.6379 39.16L63.0851 38.2656C62.9154 38.1808 62.7481 38.1287 62.6196 38.092C62.554 38.0732 62.4848 38.0548 62.4234 38.0383C62.3591 38.0211 62.2968 38.0043 62.2308 37.9854L61.9561 38.947ZM62.6379 39.16L62.3953 40.1302C62.3899 40.1288 62.3811 40.1261 62.3703 40.1216C62.3595 40.1171 62.3501 40.112 62.3428 40.1076C62.3285 40.0987 62.3318 40.0977 62.3569 40.1228L63.064 39.4157L63.7711 38.7086C63.5531 38.4906 63.2724 38.2879 62.8804 38.1899L62.6379 39.16ZM63.064 39.4157L62.3569 40.1228C62.3494 40.1153 62.331 40.0956 62.3099 40.0637C62.288 40.0306 62.2693 39.9933 62.2554 39.9544C62.2288 39.88 62.2344 39.8388 62.2344 39.8844H63.2344H64.2344C64.2344 39.717 64.2187 39.5054 64.1389 39.2818C64.054 39.0442 63.9204 38.8579 63.7711 38.7086L63.064 39.4157ZM63.2344 39.8844H62.2344C62.2344 39.9052 62.2305 39.8678 62.2614 39.8026C62.2774 39.7689 62.3004 39.7329 62.3311 39.6989C62.3619 39.6649 62.3939 39.6401 62.4216 39.6235L62.9361 40.481L63.4506 41.3385C64.0544 40.9763 64.2344 40.3727 64.2344 39.8844H63.2344ZM62.9361 40.481L62.3114 39.7001C62.3588 39.6622 62.3888 39.6631 62.3447 39.6722C62.2897 39.6836 62.1883 39.6941 61.9987 39.6941V40.6941V41.6941C62.4282 41.6941 63.0517 41.6692 63.5608 41.2619L62.9361 40.481ZM61.9987 40.6941V39.6941C61.7986 39.6941 61.6414 39.666 61.4978 39.6045L61.1038 40.5236L60.7099 41.4428C61.1629 41.6369 61.6022 41.6941 61.9987 41.6941V40.6941ZM61.1038 40.5236L61.3786 39.5621C61.3099 39.5425 61.24 39.5012 61.1291 39.3904L60.422 40.0975L59.7149 40.8046C59.945 41.0346 60.3012 41.3343 60.8291 41.4851L61.1038 40.5236ZM60.422 40.0975L59.5479 39.6118L59.3348 39.9953L60.209 40.481L61.0831 40.9666L61.2962 40.5831L60.422 40.0975ZM60.209 40.481L59.5019 41.1881C59.7859 41.4721 60.1681 41.7148 60.6249 41.8861L60.976 40.9497L61.3271 40.0134C61.1021 39.929 60.973 39.8308 60.9161 39.7739L60.209 40.481ZM60.976 40.9497L60.6249 41.8861C61.1069 42.0668 61.5731 42.1202 61.9987 42.1202V41.1202V40.1202C61.7424 40.1202 61.5269 40.0883 61.3271 40.0134L60.976 40.9497ZM61.9987 41.1202V42.1202C62.424 42.1202 62.9568 42.0787 63.426 41.8442L62.9787 40.9497L62.5315 40.0553C62.4893 40.0764 62.3404 40.1202 61.9987 40.1202V41.1202ZM62.9787 40.9497L63.426 41.8442C63.6862 41.714 64.1426 41.4791 64.4328 40.9955L63.5753 40.481L62.7178 39.9665C62.7378 39.9333 62.7545 39.9255 62.7318 39.9423C62.7016 39.9645 62.6468 39.9977 62.5315 40.0553L62.9787 40.9497ZM63.5753 40.481L64.4328 40.9955C64.6009 40.7153 64.7884 40.317 64.7884 39.8418H63.7884H62.7884C62.7884 39.814 62.794 39.8079 62.7859 39.8311C62.7773 39.8558 62.7579 39.8997 62.7178 39.9665L63.5753 40.481ZM63.7884 39.8418H64.7884C64.7884 39.3272 64.633 38.9036 64.3753 38.56L63.5753 39.16L62.7753 39.76C62.7791 39.7651 62.7804 39.7675 62.7805 39.7677C62.7806 39.7678 62.7807 39.768 62.7811 39.7692C62.7813 39.7698 62.7884 39.7899 62.7884 39.8418H63.7884ZM63.5753 39.16L63.9467 38.2316C63.9081 38.2161 63.866 38.1941 63.7627 38.1367C63.6742 38.0876 63.5246 38.0031 63.3501 37.9333L62.9787 38.8618L62.6074 39.7902C62.6459 39.8057 62.6881 39.8277 62.7914 39.8851C62.8798 39.9342 63.0294 40.0187 63.2039 40.0885L63.5753 39.16Z" fill="#B1B1B1" mask="url(#path-16-inside-5_2029_2868)"/>
<path d="M65.0254 40.9067L65.0869 40.7837C65.0923 40.7922 65.0959 40.7988 65.0977 40.8022C65.097 40.8058 65.0969 40.8102 65.0957 40.8149C65.0913 40.8327 65.0832 40.8543 65.0713 40.8755C65.0595 40.8964 65.0468 40.9107 65.0381 40.9194L65.0254 40.9067ZM64.8545 40.9067L64.8447 40.9175C64.8378 40.9035 64.8308 40.8809 64.8271 40.8521L64.8545 40.9067ZM64.998 40.7124C65.014 40.7164 65.0269 40.7215 65.0361 40.7261L64.9404 40.8218L64.8447 40.7261C64.8633 40.7168 64.8967 40.7056 64.9404 40.7056L64.998 40.7124Z" fill="#B1B1B1" stroke="#B1B1B1"/>
<path d="M66.2773 40.9438C66.2698 40.938 66.2612 40.9322 66.2529 40.9243C66.2519 40.9225 66.2504 40.9202 66.249 40.9175C66.2421 40.9035 66.2351 40.8809 66.2314 40.8521L66.2773 40.9438ZM66.249 40.7261C66.2676 40.7168 66.301 40.7056 66.3447 40.7056L66.4023 40.7124C66.4183 40.7164 66.4312 40.7215 66.4404 40.7261C66.4431 40.7274 66.4455 40.7289 66.4473 40.73C66.467 40.7505 66.4806 40.7679 66.4873 40.7778C66.495 40.7892 66.4998 40.7981 66.502 40.8022C66.5013 40.8058 66.5012 40.8102 66.5 40.8149C66.4955 40.8327 66.4875 40.8543 66.4756 40.8755C66.4638 40.8964 66.4511 40.9107 66.4424 40.9194L66.249 40.7261Z" fill="#B1B1B1" stroke="#B1B1B1"/>
<path d="M67.8789 40.9067L67.9404 40.7837C67.9459 40.7922 67.9494 40.7988 67.9512 40.8022C67.9505 40.8058 67.9504 40.8102 67.9492 40.8149C67.9448 40.8327 67.9367 40.8543 67.9248 40.8755C67.913 40.8964 67.9003 40.9107 67.8916 40.9194L67.8789 40.9067ZM67.708 40.9067L67.6982 40.9175C67.6913 40.9035 67.6843 40.8809 67.6807 40.8521L67.708 40.9067ZM67.8516 40.7124C67.8675 40.7164 67.8804 40.7215 67.8896 40.7261L67.7939 40.8218L67.6982 40.7261C67.7168 40.7168 67.7502 40.7056 67.7939 40.7056L67.8516 40.7124Z" fill="#B1B1B1" stroke="#B1B1B1"/>
<path d="M69.3301 40.9067L69.3916 40.7837C69.397 40.7922 69.4006 40.7988 69.4023 40.8022C69.4017 40.8058 69.4016 40.8102 69.4004 40.8149C69.3959 40.8327 69.3879 40.8543 69.376 40.8755C69.3642 40.8964 69.3515 40.9107 69.3428 40.9194L69.3301 40.9067ZM69.1592 40.9067L69.1494 40.9175C69.1424 40.9035 69.1355 40.8809 69.1318 40.8521L69.1592 40.9067ZM69.3027 40.7124C69.3187 40.7164 69.3316 40.7215 69.3408 40.7261L69.2451 40.8218L69.1494 40.7261C69.1679 40.7168 69.2014 40.7056 69.2451 40.7056L69.3027 40.7124Z" fill="#B1B1B1" stroke="#B1B1B1"/>
<path d="M70.582 40.9438C70.5745 40.938 70.5659 40.9322 70.5576 40.9243C70.5566 40.9225 70.5551 40.9202 70.5537 40.9175C70.5467 40.9035 70.5398 40.8809 70.5361 40.8521L70.582 40.9438ZM70.5537 40.7261C70.5722 40.7168 70.6057 40.7056 70.6494 40.7056L70.707 40.7124C70.723 40.7164 70.7359 40.7215 70.7451 40.7261C70.7478 40.7274 70.7501 40.7289 70.752 40.73C70.7717 40.7505 70.7852 40.7679 70.792 40.7778C70.7997 40.7892 70.8045 40.7981 70.8066 40.8022C70.806 40.8058 70.8059 40.8102 70.8047 40.8149C70.8002 40.8327 70.7922 40.8543 70.7803 40.8755C70.7685 40.8964 70.7558 40.9107 70.7471 40.9194L70.5537 40.7261Z" fill="#B1B1B1" stroke="#B1B1B1"/>
<path d="M72.0312 40.9438C72.0237 40.938 72.0151 40.9322 72.0068 40.9243C72.0058 40.9225 72.0043 40.9202 72.0029 40.9175C71.996 40.9035 71.989 40.8809 71.9854 40.8521L72.0312 40.9438ZM72.0029 40.7261C72.0215 40.7168 72.0549 40.7056 72.0986 40.7056L72.1562 40.7124C72.1722 40.7164 72.1851 40.7215 72.1943 40.7261C72.197 40.7274 72.1994 40.7289 72.2012 40.73C72.221 40.7505 72.2345 40.7679 72.2412 40.7778C72.2489 40.7892 72.2537 40.7981 72.2559 40.8022C72.2552 40.8058 72.2551 40.8102 72.2539 40.8149C72.2495 40.8327 72.2414 40.8543 72.2295 40.8755C72.2177 40.8964 72.205 40.9107 72.1963 40.9194L72.0029 40.7261Z" fill="#B1B1B1" stroke="#B1B1B1"/>
<path d="M73.6309 40.9067L73.6924 40.7837C73.6978 40.7922 73.7014 40.7988 73.7031 40.8022C73.7025 40.8058 73.7023 40.8102 73.7012 40.8149C73.6967 40.8327 73.6887 40.8543 73.6768 40.8755C73.665 40.8964 73.6522 40.9107 73.6436 40.9194L73.6309 40.9067ZM73.46 40.9067L73.4502 40.9175C73.4432 40.9035 73.4363 40.8809 73.4326 40.8521L73.46 40.9067ZM73.6035 40.7124C73.6195 40.7164 73.6324 40.7215 73.6416 40.7261L73.5459 40.8218L73.4502 40.7261C73.4687 40.7168 73.5022 40.7056 73.5459 40.7056L73.6035 40.7124Z" fill="#B1B1B1" stroke="#B1B1B1"/>
<path d="M75.082 40.9067L75.1436 40.7837C75.149 40.7922 75.1525 40.7988 75.1543 40.8022C75.1536 40.8058 75.1535 40.8102 75.1523 40.8149C75.1479 40.8327 75.1399 40.8543 75.1279 40.8755C75.1161 40.8964 75.1034 40.9107 75.0947 40.9194L75.082 40.9067ZM74.9111 40.9067L74.9014 40.9175C74.8944 40.9035 74.8874 40.8809 74.8838 40.8521L74.9111 40.9067ZM75.0547 40.7124C75.0707 40.7164 75.0836 40.7215 75.0928 40.7261L74.9971 40.8218L74.9014 40.7261C74.9199 40.7168 74.9534 40.7056 74.9971 40.7056L75.0547 40.7124Z" fill="#B1B1B1" stroke="#B1B1B1"/>
<path d="M76.3359 40.9438C76.3284 40.938 76.3198 40.9322 76.3115 40.9243C76.3105 40.9225 76.309 40.9202 76.3076 40.9175C76.3006 40.9035 76.2937 40.8809 76.29 40.8521L76.3359 40.9438ZM76.3076 40.7261C76.3261 40.7168 76.3596 40.7056 76.4033 40.7056L76.4609 40.7124C76.4769 40.7164 76.4898 40.7215 76.499 40.7261C76.5017 40.7274 76.504 40.7289 76.5059 40.73C76.5256 40.7505 76.5392 40.7679 76.5459 40.7778C76.5536 40.7892 76.5584 40.7981 76.5605 40.8022C76.5599 40.8058 76.5598 40.8102 76.5586 40.8149C76.5541 40.8327 76.5461 40.8543 76.5342 40.8755C76.5224 40.8964 76.5097 40.9107 76.501 40.9194L76.3076 40.7261Z" fill="#B1B1B1" stroke="#B1B1B1"/>
<path d="M77.7832 40.9438C77.7756 40.938 77.7671 40.9322 77.7588 40.9243C77.7577 40.9225 77.7562 40.9202 77.7549 40.9175C77.7479 40.9035 77.7409 40.8809 77.7373 40.8521L77.7832 40.9438ZM77.7549 40.7261C77.7734 40.7168 77.8069 40.7056 77.8506 40.7056L77.9082 40.7124C77.9242 40.7164 77.9371 40.7215 77.9463 40.7261C77.949 40.7274 77.9513 40.7289 77.9531 40.73C77.9729 40.7505 77.9864 40.7679 77.9932 40.7778C78.0009 40.7892 78.0057 40.7981 78.0078 40.8022C78.0072 40.8058 78.007 40.8102 78.0059 40.8149C78.0014 40.8327 77.9934 40.8543 77.9814 40.8755C77.9697 40.8964 77.9569 40.9107 77.9482 40.9194L77.7549 40.7261Z" fill="#B1B1B1" stroke="#B1B1B1"/>
<path d="M79.3828 40.9067L79.4443 40.7837C79.4498 40.7922 79.4533 40.7988 79.4551 40.8022C79.4544 40.8058 79.4543 40.8102 79.4531 40.8149C79.4487 40.8327 79.4406 40.8543 79.4287 40.8755C79.4169 40.8964 79.4042 40.9107 79.3955 40.9194L79.3828 40.9067ZM79.2119 40.9067L79.2021 40.9175C79.1952 40.9035 79.1882 40.8809 79.1846 40.8521L79.2119 40.9067ZM79.3555 40.7124C79.3714 40.7164 79.3843 40.7215 79.3936 40.7261L79.2979 40.8218L79.2021 40.7261C79.2207 40.7168 79.2541 40.7056 79.2979 40.7056L79.3555 40.7124Z" fill="#B1B1B1" stroke="#B1B1B1"/>
<path d="M80.8359 40.9067L80.8975 40.7837C80.9029 40.7922 80.9064 40.7988 80.9082 40.8022C80.9075 40.8058 80.9074 40.8102 80.9062 40.8149C80.9018 40.8327 80.8938 40.8543 80.8818 40.8755C80.87 40.8964 80.8573 40.9107 80.8486 40.9194L80.8359 40.9067ZM80.665 40.9067L80.6553 40.9175C80.6483 40.9035 80.6413 40.8809 80.6377 40.8521L80.665 40.9067ZM80.8086 40.7124C80.8246 40.7164 80.8375 40.7215 80.8467 40.7261L80.751 40.8218L80.6553 40.7261C80.6738 40.7168 80.7073 40.7056 80.751 40.7056L80.8086 40.7124Z" fill="#B1B1B1" stroke="#B1B1B1"/>
<path d="M82.0879 40.9438C82.0803 40.938 82.0717 40.9322 82.0635 40.9243C82.0624 40.9225 82.0609 40.9202 82.0596 40.9175C82.0526 40.9035 82.0456 40.8809 82.042 40.8521L82.0879 40.9438ZM82.0596 40.7261C82.0781 40.7168 82.1116 40.7056 82.1553 40.7056L82.2129 40.7124C82.2289 40.7164 82.2418 40.7215 82.251 40.7261C82.2537 40.7274 82.256 40.7289 82.2578 40.73C82.2776 40.7505 82.2911 40.7679 82.2979 40.7778C82.3056 40.7892 82.3103 40.7981 82.3125 40.8022C82.3118 40.8058 82.3117 40.8102 82.3105 40.8149C82.3061 40.8327 82.2981 40.8543 82.2861 40.8755C82.2743 40.8964 82.2616 40.9107 82.2529 40.9194L82.0596 40.7261Z" fill="#B1B1B1" stroke="#B1B1B1"/>
<path d="M83.6875 40.9067L83.749 40.7837C83.7544 40.7922 83.758 40.7988 83.7598 40.8022C83.7591 40.8058 83.759 40.8102 83.7578 40.8149C83.7534 40.8327 83.7453 40.8543 83.7334 40.8755C83.7216 40.8964 83.7089 40.9107 83.7002 40.9194L83.6875 40.9067ZM83.5166 40.9067L83.5068 40.9175C83.4999 40.9035 83.4929 40.8809 83.4893 40.8521L83.5166 40.9067ZM83.6602 40.7124C83.6761 40.7164 83.689 40.7215 83.6982 40.7261L83.6025 40.8218L83.5068 40.7261C83.5254 40.7168 83.5588 40.7056 83.6025 40.7056L83.6602 40.7124Z" fill="#B1B1B1" stroke="#B1B1B1"/>
<path d="M85.1367 40.9067L85.1982 40.7837C85.2037 40.7922 85.2072 40.7988 85.209 40.8022C85.2083 40.8058 85.2082 40.8102 85.207 40.8149C85.2026 40.8327 85.1945 40.8543 85.1826 40.8755C85.1708 40.8964 85.1581 40.9107 85.1494 40.9194L85.1367 40.9067ZM84.9658 40.9067L84.9561 40.9175C84.9491 40.9035 84.9421 40.8809 84.9385 40.8521L84.9658 40.9067ZM85.1094 40.7124C85.1253 40.7164 85.1382 40.7215 85.1475 40.7261L85.0518 40.8218L84.9561 40.7261C84.9746 40.7168 85.008 40.7056 85.0518 40.7056L85.1094 40.7124Z" fill="#B1B1B1" stroke="#B1B1B1"/>
<path d="M86.5879 40.9067L86.6494 40.7837C86.6548 40.7922 86.6584 40.7988 86.6602 40.8022C86.6595 40.8058 86.6594 40.8102 86.6582 40.8149C86.6538 40.8327 86.6457 40.8543 86.6338 40.8755C86.622 40.8964 86.6093 40.9107 86.6006 40.9194L86.5879 40.9067ZM86.417 40.9067L86.4072 40.9175C86.4003 40.9035 86.3933 40.8809 86.3896 40.8521L86.417 40.9067ZM86.5605 40.7124C86.5765 40.7164 86.5894 40.7215 86.5986 40.7261L86.5029 40.8218L86.4072 40.7261C86.4258 40.7168 86.4592 40.7056 86.5029 40.7056L86.5605 40.7124Z" fill="#B1B1B1" stroke="#B1B1B1"/>
<path d="M87.8398 40.9438C87.8323 40.938 87.8237 40.9322 87.8154 40.9243C87.8144 40.9225 87.8129 40.9202 87.8115 40.9175C87.8046 40.9035 87.7976 40.8809 87.7939 40.8521L87.8398 40.9438ZM87.8115 40.7261C87.8301 40.7168 87.8635 40.7056 87.9072 40.7056L87.9648 40.7124C87.9808 40.7164 87.9937 40.7215 88.0029 40.7261C88.0056 40.7274 88.008 40.7289 88.0098 40.73C88.0295 40.7505 88.0431 40.7679 88.0498 40.7778C88.0575 40.7892 88.0623 40.7981 88.0645 40.8022C88.0638 40.8058 88.0637 40.8102 88.0625 40.8149C88.058 40.8327 88.05 40.8543 88.0381 40.8755C88.0263 40.8964 88.0136 40.9107 88.0049 40.9194L87.8115 40.7261Z" fill="#B1B1B1" stroke="#B1B1B1"/>
<path d="M89.4414 40.9067L89.5029 40.7837C89.5084 40.7922 89.5119 40.7988 89.5137 40.8022C89.513 40.8058 89.5129 40.8102 89.5117 40.8149C89.5073 40.8327 89.4992 40.8543 89.4873 40.8755C89.4755 40.8964 89.4628 40.9107 89.4541 40.9194L89.4414 40.9067ZM89.2705 40.9067L89.2607 40.9175C89.2538 40.9035 89.2468 40.8809 89.2432 40.8521L89.2705 40.9067ZM89.4141 40.7124C89.43 40.7164 89.4429 40.7215 89.4521 40.7261L89.3564 40.8218L89.2607 40.7261C89.2793 40.7168 89.3127 40.7056 89.3564 40.7056L89.4141 40.7124Z" fill="#B1B1B1" stroke="#B1B1B1"/>
<path d="M90.8887 40.9067L90.9502 40.7837C90.9556 40.7922 90.9592 40.7988 90.9609 40.8022C90.9603 40.8058 90.9602 40.8102 90.959 40.8149C90.9545 40.8327 90.9465 40.8543 90.9346 40.8755C90.9228 40.8964 90.9101 40.9107 90.9014 40.9194L90.8887 40.9067ZM90.7178 40.9067L90.708 40.9175C90.701 40.9035 90.6941 40.8809 90.6904 40.8521L90.7178 40.9067ZM90.8613 40.7124C90.8773 40.7164 90.8902 40.7215 90.8994 40.7261L90.8037 40.8218L90.708 40.7261C90.7265 40.7168 90.76 40.7056 90.8037 40.7056L90.8613 40.7124Z" fill="#B1B1B1" stroke="#B1B1B1"/>
<path d="M92.3398 40.9067L92.4014 40.7837C92.4068 40.7922 92.4103 40.7988 92.4121 40.8022C92.4115 40.8058 92.4113 40.8102 92.4102 40.8149C92.4057 40.8327 92.3977 40.8543 92.3857 40.8755C92.374 40.8964 92.3612 40.9107 92.3525 40.9194L92.3398 40.9067ZM92.1689 40.9067L92.1592 40.9175C92.1522 40.9035 92.1452 40.8809 92.1416 40.8521L92.1689 40.9067ZM92.3125 40.7124C92.3285 40.7164 92.3414 40.7215 92.3506 40.7261L92.2549 40.8218L92.1592 40.7261C92.1777 40.7168 92.2112 40.7056 92.2549 40.7056L92.3125 40.7124Z" fill="#B1B1B1" stroke="#B1B1B1"/>
<path d="M93.5938 40.9438C93.5862 40.938 93.5776 40.9322 93.5693 40.9243C93.5683 40.9225 93.5668 40.9202 93.5654 40.9175C93.5585 40.9035 93.5515 40.8809 93.5479 40.8521L93.5938 40.9438ZM93.5654 40.7261C93.584 40.7168 93.6174 40.7056 93.6611 40.7056L93.7188 40.7124C93.7347 40.7164 93.7476 40.7215 93.7568 40.7261C93.7595 40.7274 93.7619 40.7289 93.7637 40.73C93.7835 40.7505 93.797 40.7679 93.8037 40.7778C93.8114 40.7892 93.8162 40.7981 93.8184 40.8022C93.8177 40.8058 93.8176 40.8102 93.8164 40.8149C93.812 40.8327 93.8039 40.8543 93.792 40.8755C93.7802 40.8964 93.7675 40.9107 93.7588 40.9194L93.5654 40.7261Z" fill="#B1B1B1" stroke="#B1B1B1"/>
<path d="M95.1934 40.9067L95.2549 40.7837C95.2603 40.7922 95.2639 40.7988 95.2656 40.8022C95.265 40.8058 95.2648 40.8102 95.2637 40.8149C95.2592 40.8327 95.2512 40.8543 95.2393 40.8755C95.2275 40.8964 95.2147 40.9107 95.2061 40.9194L95.1934 40.9067ZM95.0225 40.9067L95.0127 40.9175C95.0057 40.9035 94.9988 40.8809 94.9951 40.8521L95.0225 40.9067ZM95.166 40.7124C95.182 40.7164 95.1949 40.7215 95.2041 40.7261L95.1084 40.8218L95.0127 40.7261C95.0312 40.7168 95.0647 40.7056 95.1084 40.7056L95.166 40.7124Z" fill="#B1B1B1" stroke="#B1B1B1"/>
<path d="M96.6406 40.9067L96.7021 40.7837C96.7076 40.7922 96.7111 40.7988 96.7129 40.8022C96.7122 40.8058 96.7121 40.8102 96.7109 40.8149C96.7065 40.8327 96.6984 40.8543 96.6865 40.8755C96.6747 40.8964 96.662 40.9107 96.6533 40.9194L96.6406 40.9067ZM96.4697 40.9067L96.46 40.9175C96.453 40.9035 96.446 40.8809 96.4424 40.8521L96.4697 40.9067ZM96.6133 40.7124C96.6293 40.7164 96.6422 40.7215 96.6514 40.7261L96.5557 40.8218L96.46 40.7261C96.4785 40.7168 96.512 40.7056 96.5557 40.7056L96.6133 40.7124Z" fill="#B1B1B1" stroke="#B1B1B1"/>
<path d="M97.8965 40.9438C97.8889 40.938 97.8803 40.9322 97.8721 40.9243C97.871 40.9225 97.8695 40.9202 97.8682 40.9175C97.8612 40.9035 97.8542 40.8809 97.8506 40.8521L97.8965 40.9438ZM97.8682 40.7261C97.8867 40.7168 97.9202 40.7056 97.9639 40.7056L98.0215 40.7124C98.0375 40.7164 98.0504 40.7215 98.0596 40.7261C98.0623 40.7274 98.0646 40.7289 98.0664 40.73C98.0862 40.7505 98.0997 40.7679 98.1064 40.7778C98.1142 40.7893 98.1189 40.7981 98.1211 40.8022C98.1204 40.8058 98.1203 40.8102 98.1191 40.8149C98.1147 40.8327 98.1067 40.8543 98.0947 40.8755C98.0829 40.8964 98.0702 40.9107 98.0615 40.9194L97.8682 40.7261Z" fill="#B1B1B1" stroke="#B1B1B1"/>
<path d="M99.3457 40.9438C99.3381 40.938 99.3296 40.9322 99.3213 40.9243C99.3202 40.9225 99.3187 40.9202 99.3174 40.9175C99.3104 40.9035 99.3034 40.8809 99.2998 40.8521L99.3457 40.9438ZM99.3174 40.7261C99.3359 40.7168 99.3694 40.7056 99.4131 40.7056L99.4707 40.7124C99.4867 40.7164 99.4996 40.7215 99.5088 40.7261C99.5115 40.7274 99.5138 40.7289 99.5156 40.73C99.5354 40.7505 99.5489 40.7679 99.5557 40.7778C99.5634 40.7892 99.5682 40.7981 99.5703 40.8022C99.5697 40.8058 99.5695 40.8102 99.5684 40.8149C99.5639 40.8327 99.5559 40.8543 99.5439 40.8755C99.5322 40.8964 99.5194 40.9107 99.5107 40.9194L99.3174 40.7261Z" fill="#B1B1B1" stroke="#B1B1B1"/>
<path d="M100.945 40.9067L101.007 40.7837C101.012 40.7922 101.016 40.7988 101.018 40.8022C101.017 40.8058 101.017 40.8102 101.016 40.8149C101.011 40.8327 101.003 40.8543 100.991 40.8755C100.979 40.8964 100.967 40.9107 100.958 40.9194L100.945 40.9067ZM100.774 40.9067L100.765 40.9175C100.758 40.9035 100.751 40.8809 100.747 40.8521L100.774 40.9067ZM100.918 40.7124C100.934 40.7164 100.947 40.7215 100.956 40.7261L100.86 40.8218L100.765 40.7261C100.783 40.7168 100.817 40.7056 100.86 40.7056L100.918 40.7124Z" fill="#B1B1B1" stroke="#B1B1B1"/>
<path d="M102.395 40.9067L102.456 40.7837C102.461 40.7922 102.465 40.7988 102.467 40.8022C102.466 40.8058 102.466 40.8102 102.465 40.8149C102.46 40.8327 102.452 40.8543 102.44 40.8755C102.429 40.8964 102.416 40.9107 102.407 40.9194L102.395 40.9067ZM102.224 40.9067L102.214 40.9175C102.207 40.9035 102.2 40.8809 102.196 40.8521L102.224 40.9067ZM102.367 40.7124C102.383 40.7164 102.396 40.7215 102.405 40.7261L102.31 40.8218L102.214 40.7261C102.232 40.7168 102.266 40.7056 102.31 40.7056L102.367 40.7124Z" fill="#B1B1B1" stroke="#B1B1B1"/>
<path d="M103.65 40.9438C103.643 40.938 103.634 40.9322 103.626 40.9243C103.625 40.9225 103.623 40.9202 103.622 40.9175C103.615 40.9035 103.608 40.8809 103.604 40.8521L103.65 40.9438ZM103.622 40.7261C103.641 40.7168 103.674 40.7056 103.718 40.7056L103.775 40.7124C103.791 40.7164 103.804 40.7215 103.813 40.7261C103.816 40.7274 103.818 40.7289 103.82 40.73C103.84 40.7505 103.854 40.7679 103.86 40.7778C103.868 40.7893 103.873 40.7981 103.875 40.8022C103.874 40.8058 103.874 40.8102 103.873 40.8149C103.869 40.8327 103.861 40.8543 103.849 40.8755C103.837 40.8964 103.824 40.9107 103.815 40.9194L103.622 40.7261Z" fill="#B1B1B1" stroke="#B1B1B1"/>
<path d="M105.099 40.9458C105.091 40.9397 105.082 40.933 105.073 40.9243C105.072 40.9225 105.071 40.9202 105.069 40.9175C105.062 40.9035 105.055 40.8809 105.052 40.8521L105.099 40.9458ZM105.069 40.7261C105.088 40.7168 105.121 40.7056 105.165 40.7056L105.223 40.7124C105.239 40.7164 105.252 40.7215 105.261 40.7261C105.263 40.7274 105.266 40.7289 105.268 40.73C105.287 40.7505 105.301 40.7679 105.308 40.7778C105.315 40.7892 105.32 40.7981 105.322 40.8022C105.322 40.8058 105.321 40.8102 105.32 40.8149C105.316 40.8327 105.308 40.8543 105.296 40.8755C105.284 40.8964 105.271 40.9107 105.263 40.9194L105.069 40.7261Z" fill="#B1B1B1" stroke="#B1B1B1"/>
<path d="M106.699 40.9067L106.761 40.7837C106.766 40.7922 106.77 40.7988 106.771 40.8022C106.771 40.8058 106.771 40.8102 106.77 40.8149C106.765 40.8327 106.757 40.8543 106.745 40.8755C106.733 40.8964 106.721 40.9107 106.712 40.9194L106.699 40.9067ZM106.528 40.9067L106.519 40.9175C106.512 40.9035 106.505 40.8809 106.501 40.8521L106.528 40.9067ZM106.672 40.7124C106.688 40.7164 106.701 40.7215 106.71 40.7261L106.614 40.8218L106.519 40.7261C106.537 40.7168 106.571 40.7056 106.614 40.7056L106.672 40.7124Z" fill="#B1B1B1" stroke="#B1B1B1"/>
<path d="M108.146 40.9067L108.208 40.7837C108.213 40.7922 108.217 40.7988 108.219 40.8022C108.218 40.8058 108.218 40.8102 108.217 40.8149C108.212 40.8327 108.204 40.8543 108.192 40.8755C108.181 40.8964 108.168 40.9107 108.159 40.9194L108.146 40.9067ZM107.976 40.9067L107.966 40.9175C107.959 40.9035 107.952 40.8809 107.948 40.8521L107.976 40.9067ZM108.119 40.7124C108.135 40.7164 108.148 40.7215 108.157 40.7261L108.062 40.8218L107.966 40.7261C107.984 40.7168 108.018 40.7056 108.062 40.7056L108.119 40.7124Z" fill="#B1B1B1" stroke="#B1B1B1"/>
<path d="M109.402 40.9438C109.395 40.938 109.386 40.9322 109.378 40.9243C109.377 40.9225 109.375 40.9202 109.374 40.9175C109.367 40.9035 109.36 40.8809 109.356 40.8521L109.402 40.9438ZM109.374 40.7261C109.393 40.7168 109.426 40.7056 109.47 40.7056L109.527 40.7124C109.543 40.7164 109.556 40.7215 109.565 40.7261C109.568 40.7274 109.57 40.7289 109.572 40.73C109.592 40.7505 109.606 40.7679 109.612 40.7778C109.62 40.7893 109.625 40.7981 109.627 40.8022C109.626 40.8058 109.626 40.8102 109.625 40.8149C109.621 40.8327 109.613 40.8543 109.601 40.8755C109.589 40.8964 109.576 40.9107 109.567 40.9194L109.374 40.7261Z" fill="#B1B1B1" stroke="#B1B1B1"/>
<path d="M111.002 40.9067L111.063 40.7837C111.069 40.7922 111.072 40.7988 111.074 40.8022C111.074 40.8058 111.073 40.8102 111.072 40.8149C111.068 40.8327 111.06 40.8543 111.048 40.8755C111.036 40.8964 111.023 40.9107 111.015 40.9194L111.002 40.9067ZM110.831 40.9067L110.821 40.9175C110.814 40.9035 110.807 40.8809 110.804 40.8521L110.831 40.9067ZM110.975 40.7124C110.991 40.7164 111.003 40.7215 111.013 40.7261L110.917 40.8218L110.821 40.7261C110.84 40.7168 110.873 40.7056 110.917 40.7056L110.975 40.7124Z" fill="#B1B1B1" stroke="#B1B1B1"/>
<path d="M112.451 40.9067L112.513 40.7837C112.518 40.7922 112.522 40.7988 112.523 40.8022C112.523 40.8058 112.523 40.8102 112.521 40.8149C112.517 40.8327 112.509 40.8543 112.497 40.8755C112.485 40.8964 112.473 40.9107 112.464 40.9194L112.451 40.9067ZM112.28 40.9067L112.271 40.9175C112.264 40.9035 112.257 40.8809 112.253 40.8521L112.28 40.9067ZM112.424 40.7124C112.44 40.7164 112.453 40.7215 112.462 40.7261L112.366 40.8218L112.271 40.7261C112.289 40.7168 112.323 40.7056 112.366 40.7056L112.424 40.7124Z" fill="#B1B1B1" stroke="#B1B1B1"/>
<path d="M113.898 40.9067L113.96 40.7837C113.965 40.7922 113.969 40.7988 113.971 40.8022C113.97 40.8058 113.97 40.8102 113.969 40.8149C113.964 40.8327 113.956 40.8543 113.944 40.8755C113.933 40.8964 113.92 40.9107 113.911 40.9194L113.898 40.9067ZM113.728 40.9067L113.718 40.9175C113.711 40.9035 113.704 40.8809 113.7 40.8521L113.728 40.9067ZM113.871 40.7124C113.887 40.7164 113.9 40.7215 113.909 40.7261L113.813 40.8218L113.718 40.7261C113.736 40.7168 113.77 40.7056 113.813 40.7056L113.871 40.7124Z" fill="#B1B1B1" stroke="#B1B1B1"/>
<path d="M115.154 40.9438C115.147 40.938 115.138 40.9322 115.13 40.9243C115.129 40.9225 115.127 40.9202 115.126 40.9175C115.119 40.9035 115.112 40.8809 115.108 40.8521L115.154 40.9438ZM115.126 40.7261C115.145 40.7168 115.178 40.7056 115.222 40.7056L115.279 40.7124C115.295 40.7164 115.308 40.7215 115.317 40.7261C115.32 40.7274 115.322 40.7289 115.324 40.73C115.344 40.7505 115.358 40.7679 115.364 40.7778C115.372 40.7893 115.377 40.7981 115.379 40.8022C115.378 40.8058 115.378 40.8102 115.377 40.8149C115.373 40.8327 115.364 40.8543 115.353 40.8755C115.341 40.8964 115.328 40.9107 115.319 40.9194L115.126 40.7261Z" fill="#B1B1B1" stroke="#B1B1B1"/>
<path d="M116.756 40.9067L116.817 40.7837C116.823 40.7922 116.826 40.7988 116.828 40.8022C116.827 40.8058 116.827 40.8102 116.826 40.8149C116.822 40.8327 116.814 40.8543 116.802 40.8755C116.79 40.8964 116.777 40.9107 116.769 40.9194L116.756 40.9067ZM116.585 40.9067L116.575 40.9175C116.568 40.9035 116.561 40.8809 116.558 40.8521L116.585 40.9067ZM116.729 40.7124C116.744 40.7164 116.757 40.7215 116.767 40.7261L116.671 40.8218L116.575 40.7261C116.594 40.7168 116.627 40.7056 116.671 40.7056L116.729 40.7124Z" fill="#B1B1B1" stroke="#B1B1B1"/>
<path d="M118.203 40.9067L118.265 40.7837C118.27 40.7922 118.274 40.7988 118.275 40.8022C118.275 40.8058 118.275 40.8102 118.273 40.8149C118.269 40.8327 118.261 40.8543 118.249 40.8755C118.237 40.8964 118.225 40.9107 118.216 40.9194L118.203 40.9067ZM118.032 40.9067L118.022 40.9175C118.015 40.9035 118.009 40.8809 118.005 40.8521L118.032 40.9067ZM118.176 40.7124C118.192 40.7164 118.205 40.7215 118.214 40.7261L118.118 40.8218L118.022 40.7261C118.041 40.7168 118.074 40.7056 118.118 40.7056L118.176 40.7124Z" fill="#B1B1B1" stroke="#B1B1B1"/>
<path d="M119.652 40.9067L119.714 40.7837C119.719 40.7922 119.723 40.7988 119.725 40.8022C119.724 40.8058 119.724 40.8102 119.723 40.8149C119.718 40.8327 119.71 40.8543 119.698 40.8755C119.686 40.8964 119.674 40.9107 119.665 40.9194L119.652 40.9067ZM119.481 40.9067L119.472 40.9175C119.465 40.9035 119.458 40.8809 119.454 40.8521L119.481 40.9067ZM119.625 40.7124C119.641 40.7164 119.654 40.7215 119.663 40.7261L119.567 40.8218L119.472 40.7261C119.49 40.7168 119.524 40.7056 119.567 40.7056L119.625 40.7124Z" fill="#B1B1B1" stroke="#B1B1B1"/>
</svg>
