<svg width="100" height="100" viewBox="0 0 100 100" fill="none" xmlns="http://www.w3.org/2000/svg">
<path d="M49.2207 45.395C53.5172 45.395 57.0008 48.8779 57.001 53.1743C57.001 57.4709 53.5173 60.9546 49.2207 60.9546C44.9243 60.9544 41.4414 57.4708 41.4414 53.1743C41.4416 48.878 44.9244 45.3952 49.2207 45.395Z" fill="#B1B1B1" stroke="#B1B1B1"/>
<path d="M75.2881 10.1597C77.355 11.4932 79.3487 13.0532 81.2002 14.7026L49.1113 41.022L33.1807 35.8628L31.9043 35.4497L32.5986 36.5972L38.7764 46.8042L12.9268 83.1011C5.24716 74.5007 0.5 63.1228 0.5 50.6899C0.500086 33.8095 9.27603 18.916 22.4141 10.2515H41.7266V25.7993H55.2383V10.1597H75.2881Z" fill="#B1B1B1" stroke="#B1B1B1"/>
<path d="M86.041 19.8481C92.992 28.1629 97.2011 38.9863 97.2012 50.689C97.2012 67.8463 88.2406 82.9222 74.7393 91.4956H55.2383V79.9966H41.7275V91.4038H22.957C21.371 90.4447 19.9207 89.4142 18.4824 88.2485L49.2842 65.978L68.5283 74.0571L69.583 74.5005L69.1924 73.4253L61.6484 52.7026L86.041 19.8481Z" fill="#B1B1B1" stroke="#B1B1B1"/>
<path d="M85.9014 18.2314C84.9189 17.0639 83.8229 15.9103 82.6582 14.9072L97.1973 2.95117L85.9014 18.2314Z" fill="#B1B1B1" stroke="#B1B1B1"/>
<path d="M13.0234 84.6062C14.2348 85.9253 15.5068 87.126 16.8408 88.2068L3.73145 97.7205L13.0234 84.6062Z" fill="#B1B1B1" stroke="#B1B1B1"/>
</svg>
