<svg width="153" height="52" viewBox="0 0 153 52" fill="none" xmlns="http://www.w3.org/2000/svg">
<path d="M151.5 26C151.5 39.5586 140.728 50.5 127.5 50.5C114.272 50.5 103.5 39.5586 103.5 26C103.5 12.4414 114.272 1.5 127.5 1.5C140.728 1.5 151.5 12.4414 151.5 26Z" stroke="#D9D8D8" stroke-width="3"/>
<path d="M125.5 12L141.5 26L125.5 40" stroke="#D9D8D8" stroke-width="3" stroke-linecap="round" stroke-linejoin="round"/>
<path d="M114.5 26C114.856 26 130.648 26 138.5 26" stroke="#D9D8D8" stroke-width="3" stroke-linecap="round" stroke-linejoin="round"/>
<path d="M1.5 26C1.5 12.4414 12.2725 1.5 25.5 1.5C38.7275 1.5 49.5 12.4414 49.5 26C49.5 39.5586 38.7275 50.5 25.5 50.5C12.2725 50.5 1.5 39.5586 1.5 26Z" stroke="#D9D8D8" stroke-width="3"/>
<path d="M27.5 40L11.5 26L27.5 12" stroke="#D9D8D8" stroke-width="3" stroke-linecap="round" stroke-linejoin="round"/>
<path d="M38.5 26C38.1444 26 22.3519 26 14.5 26" stroke="#D9D8D8" stroke-width="3" stroke-linecap="round" stroke-linejoin="round"/>
<rect x="52.5" y="2" width="48" height="48" rx="4.5" stroke="#D9D8D8" stroke-width="3"/>
<line x1="55.0607" y1="3.43934" x2="99.0607" y2="47.4393" stroke="#D9D8D8" stroke-width="3"/>
</svg>
