<svg width="19" height="21" viewBox="0 0 19 21" fill="none" xmlns="http://www.w3.org/2000/svg">
<path d="M8.12891 1.5C11.8037 1.5 14.7576 4.44617 14.7578 8.0498C14.7578 11.6536 11.8038 14.6006 8.12891 14.6006C4.45404 14.6006 1.5 11.6536 1.5 8.0498C1.50017 4.44618 4.45415 1.50002 8.12891 1.5Z" stroke="#D9D8D8" stroke-width="3"/>
<path d="M15.8432 19.9538C16.3759 20.5883 17.3262 20.6756 17.9657 20.149C18.6052 19.6223 18.6917 18.6811 18.159 18.0467L17.0011 19.0003L15.8432 19.9538ZM12.4453 13.5751L11.2874 14.5286L15.8432 19.9538L17.0011 19.0003L18.159 18.0467L13.6032 12.6215L12.4453 13.5751Z" fill="#D9D8D8"/>
</svg>
