<svg width="196" height="74" viewBox="0 0 196 74" fill="none" xmlns="http://www.w3.org/2000/svg">
<path d="M74.1772 0H0V14.7914H74.1772V0Z" fill="#000000"/>
<path d="M96.4518 44.4178H59.4707V29.6263H81.6164L96.4518 44.4178Z" fill="#000000"/>
<path d="M155.795 0L96.4528 59.1657H56.4186L44.6362 47.4612V29.5829L29.8008 14.7914V53.5921L50.2694 73.9571H81.6173L81.5743 74H102.559L176.779 0H155.795Z" fill="#000000"/>
<path d="M129.177 26.5388L102.602 0H81.6172L108.192 26.5388H129.177Z" fill="#000000"/>
<path d="M129.176 47.4617L155.794 73.9576H176.778L150.16 47.4617H129.176Z" fill="#000000"/>
<path d="M188.56 1.71495C191.742 1.71495 194.322 4.28737 194.322 7.46002C194.322 10.6327 191.742 13.2051 188.56 13.2051C185.378 13.2051 182.798 10.6327 182.798 7.46002C182.841 4.24449 185.421 1.71495 188.56 1.71495ZM188.56 0C184.475 0 181.121 3.30127 181.121 7.41715C181.121 11.4901 184.432 14.8343 188.56 14.8343C192.645 14.8343 196 11.533 196 7.41715C196 3.34414 192.688 0 188.56 0Z" fill="#000000"/>
<path d="M186.927 11.19H185.465V3.94434H189.335C190.238 3.94434 190.883 4.11584 191.27 4.45883C191.657 4.80182 191.872 5.35917 191.872 6.08802C191.872 6.98837 191.571 7.58861 191.012 7.9316C191.528 8.18884 191.786 8.70332 191.786 9.3893V11.1471H190.324V9.47504C190.324 9.17492 190.238 8.96056 190.066 8.83194C189.894 8.70331 189.593 8.61757 189.206 8.61757H186.884V11.19H186.927ZM186.927 7.33136H189.249C189.679 7.33136 189.98 7.24562 190.152 7.07412C190.324 6.90263 190.41 6.64538 190.41 6.30239C190.41 5.9594 190.324 5.70216 190.152 5.53067C189.98 5.35917 189.679 5.3163 189.249 5.3163H186.927V7.33136Z" fill="#000000"/>
</svg>
