<svg width="498" height="255" viewBox="0 0 498 255" fill="none" xmlns="http://www.w3.org/2000/svg">
<path d="M399.877 66.1577H310.689V101.749H372.66L310.689 163.719L335.813 188.842L393.596 131.059V188.842H429.187V130.85H393.805L429.187 95.4681L399.877 66.1577Z" fill="#D9D8D8"/>
<path d="M369.938 0C313.411 0 265.468 37.0567 248.719 88.1404C231.97 37.0567 184.027 0 127.5 0C57.1552 0 0 57.1552 0 127.5C0 197.845 57.1552 255 127.5 255C184.027 255 231.97 217.943 248.719 166.86C265.468 217.943 313.411 255 369.938 255C440.283 255 497.438 197.845 497.438 127.5C497.438 57.1552 440.283 0 369.938 0ZM242.229 122.266H193.658C192.82 77.2537 180.259 38.9409 161.626 17.7956C206.847 31.8227 240.135 73.0665 242.229 122.266ZM121.219 13.399V122.266H73.6946C74.9507 66.7857 95.6774 20.0985 121.219 13.399ZM121.219 132.734V241.601C95.6774 234.901 74.9507 188.214 73.6946 132.734H121.219ZM133.781 241.601V132.734H181.305C180.049 188.214 159.323 234.901 133.781 241.601ZM133.781 122.266V13.399C159.323 20.0985 180.049 66.7857 181.305 122.266H133.781ZM93.165 17.7956C74.532 38.9409 61.9704 77.2537 61.133 122.266H12.5616C14.8645 73.0665 48.1527 31.8227 93.165 17.7956ZM12.7709 132.734H61.3424C62.1798 177.746 74.7414 216.059 93.3744 237.204C48.1527 223.177 14.8645 181.934 12.7709 132.734ZM161.835 237.204C180.468 216.059 193.03 177.746 193.867 132.734H242.438C240.135 181.934 206.847 223.177 161.835 237.204ZM369.938 242.438C306.502 242.438 255 190.936 255 127.5C255 64.064 306.502 12.5616 369.938 12.5616C433.374 12.5616 484.877 64.064 484.877 127.5C484.877 190.936 433.374 242.438 369.938 242.438Z" fill="#D9D8D8"/>
</svg>
