<svg width="219" height="55" viewBox="0 0 219 55" fill="none" xmlns="http://www.w3.org/2000/svg">
<path d="M94.001 7.32104H112.164V13.6931H93.915C91.1368 13.6931 89.2585 13.8627 88.2646 14.0886C87.2151 14.3272 86.405 14.8649 85.8682 15.6951C85.34 16.5118 85.1065 17.5657 85.1064 18.7947C85.1064 19.8625 85.3224 20.7777 85.7744 21.5291C86.2288 22.2843 86.9001 22.8382 87.7471 23.2146L87.748 23.2156C88.9116 23.7275 90.7024 23.9822 93.1484 23.9822H99.625C103.018 23.9822 105.761 24.2795 107.344 24.8054V24.8064C110.182 25.7935 112.105 27.4166 113.146 29.738L113.147 29.741C114.009 31.628 114.423 33.729 114.423 35.9246C114.423 38.2041 113.917 40.2557 112.943 42.0876L112.742 42.4509C111.198 45.1335 108.898 46.7477 105.852 47.2771C104.317 47.5258 101.667 47.6541 98.4746 47.6541H80.3965V41.283H98.9863C100.513 41.283 101.868 41.2069 102.978 41.0593C104.072 40.9137 104.979 40.692 105.573 40.3699L105.581 40.366L105.589 40.3611C107.2 39.4135 108.009 37.9232 108.009 36.0105C108.009 34.9176 107.78 33.9523 107.301 33.1316C106.821 32.3098 106.107 31.6628 105.185 31.1785H105.184C104.643 30.8852 103.878 30.6724 103.014 30.531C102.136 30.3875 101.118 30.3113 100.052 30.3113H92.168C87.518 30.3113 84.2985 29.4614 82.3896 27.8708C81.1731 26.857 80.195 25.5562 79.5 24.0027C78.8072 22.4541 78.4785 20.7769 78.4785 19.0076C78.4786 16.2157 79.2978 13.6752 80.9424 11.3728L80.9414 11.3718C82.5015 9.21326 84.9989 7.86027 88.5127 7.48804C89.7196 7.36321 91.5285 7.32104 94.001 7.32104Z" fill="#B1B1B1" stroke="#B1B1B1"/>
<path d="M128.615 7.27783V13.6069H120.795V7.27783H128.615Z" fill="#B1B1B1" stroke="#B1B1B1"/>
<path d="M128.615 21.979V47.6538H120.795V21.979H128.615Z" fill="#B1B1B1" stroke="#B1B1B1"/>
<path d="M153.53 7.27783C157.897 7.27783 161.195 7.70319 163.542 8.56787L163.543 8.56885C167.837 10.1379 170.663 12.967 172.104 17.1196V17.1206C173.193 20.3897 173.739 23.8731 173.739 27.5728C173.739 31.2298 173.193 34.7141 172.145 37.9429L172.143 37.9487C171.107 41.2635 169.381 43.6296 167.024 45.1753C165.5 46.1218 163.857 46.7791 162.008 47.1079H162.006C160.177 47.4404 157.359 47.6108 153.487 47.6108H136.432V41.2397H154.127L154.139 41.2388C157.684 41.1523 160.332 40.2885 161.834 38.5522L161.839 38.5464C162.791 37.4122 163.586 35.8091 164.152 33.8472L164.153 33.8442C164.72 31.8403 165.024 29.7489 165.024 27.4868C165.024 25.0119 164.677 22.7018 164.021 20.645L164.019 20.6392L163.886 20.2534C163.211 18.356 162.363 16.9059 161.283 15.9126L161.277 15.9067C159.566 14.3806 156.945 13.6919 153.487 13.6919H144.252V32.9097H136.432V7.27783H153.53Z" fill="#B1B1B1" stroke="#B1B1B1"/>
<path d="M200.623 7.27783L217.339 47.6538H196.43V41.2817H206.562L206.277 40.5913L197.798 20.0522L196.393 16.603L195.929 15.4663L195.466 16.603L189.586 31.0483L189.306 31.7368H189.39L182.895 47.6538H174.477L191.192 7.27783H200.623Z" fill="#B1B1B1" stroke="#B1B1B1"/>
<path d="M24.5283 1.29541C25.6778 0.671945 27.2068 0.431384 28.7656 0.528809C30.2244 0.620042 31.6606 1.00464 32.7705 1.59424L32.9883 1.71436L53.3926 13.5132V13.5142C53.6597 13.6744 53.8066 13.8243 53.9043 13.9849C54.0023 14.1459 54.071 14.3525 54.1289 14.6655C54.1273 16.2326 54.0447 17.842 54.1299 19.4604C54.1399 19.668 54.0317 19.8501 53.832 19.9712C53.6272 20.0953 53.3907 20.1127 53.2236 20.0454C52.9816 19.9027 52.7997 19.8152 52.5635 19.6577L52.5498 19.6489L52.5361 19.6411L31.0645 7.24365H31.0654C30.1036 6.67117 29.1628 6.40565 28.2393 6.41162C27.3193 6.41759 26.4502 6.69278 25.6279 7.14893C22.6357 8.77331 14.4866 13.5517 10.2734 16.02L10.2695 16.0229C10.0672 16.1443 9.80315 16.2869 9.52441 16.4399C9.39019 16.5136 9.25149 16.5896 9.12012 16.6655L8.75781 16.8882C8.45462 17.0768 8.23838 17.3616 8.09473 17.6011L8.08984 17.6089L8.08594 17.6167C7.50051 18.6811 7.80181 20.0519 8.90527 20.6714V20.6733C9.12769 20.8068 9.3497 20.9279 9.56152 21.0444C9.77556 21.1622 9.98013 21.2749 10.1836 21.397L10.1914 21.4019L34.3057 35.3325V35.3335C34.7014 35.5663 34.7014 36.1564 34.3057 36.3892L34.3027 36.3911C33.5662 36.833 33.0425 37.1163 32.501 37.4165C31.9578 37.7177 31.4045 38.0314 30.626 38.5288L30.6172 38.5347C30.2229 38.7975 29.9992 38.8378 29.8457 38.8296C29.6654 38.8199 29.4945 38.7443 29.1582 38.5874L3.25293 23.6567C-0.7106 20.9365 0.0245425 15.9916 2.81836 13.8667L2.84473 13.8462L2.86914 13.8228C2.91168 13.7802 2.99172 13.7241 3.13379 13.6294L3.1416 13.6235C3.60707 13.2997 4.22528 12.9494 4.85938 12.603C5.4813 12.2633 6.12612 11.9228 6.60449 11.6401C11.5957 8.69659 22.7468 2.22843 24.5225 1.29834L24.5283 1.29541Z" fill="#B1B1B1" stroke="#B1B1B1"/>
<path d="M26.874 15.2952C27.054 15.3049 27.225 15.3799 27.5605 15.5364L53.4658 30.467C57.4302 33.1871 56.6953 38.133 53.9014 40.2581L53.874 40.2786L53.8506 40.302C53.8081 40.3445 53.7278 40.4008 53.5859 40.4954H53.585L53.5771 40.5012C53.1118 40.8249 52.4943 41.1755 51.8604 41.5217C51.3938 41.7766 50.9136 42.0313 50.501 42.262L50.1143 42.4836C45.123 45.4272 33.9729 51.8963 32.1973 52.8264L32.1904 52.8293C31.0409 53.4527 29.5128 53.6934 27.9541 53.5959C26.3981 53.4987 24.8676 53.0681 23.7314 52.4104L3.36328 40.6067C3.10008 40.4478 2.95441 40.2992 2.85742 40.1399C2.75895 39.978 2.68987 39.7701 2.63184 39.4543C2.63339 38.0866 2.69703 36.6867 2.65625 35.2766L2.63184 34.6643C2.62126 34.4463 2.7293 34.2697 2.91113 34.1604C3.09873 34.0478 3.33472 34.028 3.53125 34.1174C3.77691 34.2627 3.95964 34.3509 4.19824 34.51L4.21191 34.5188L4.22656 34.5266L25.6543 46.8801V46.8811C26.6161 47.4535 27.557 47.7191 28.4805 47.7131C29.4001 47.7071 30.2679 47.4307 31.0898 46.9749L31.0908 46.9758C34.0829 45.3516 42.2319 40.5732 46.4453 38.1047L46.4502 38.1018C46.6525 37.9804 46.9166 37.8378 47.1953 37.6848C47.4639 37.5374 47.7494 37.3782 47.9619 37.2366L47.9609 37.2356C48.2641 37.047 48.4804 36.7631 48.624 36.5237L48.6338 36.5081C49.2195 35.4431 48.9172 34.0714 47.8125 33.4524L47.8135 33.4514C47.5912 33.318 47.3699 33.1968 47.1582 33.0803C46.9439 32.9625 46.7388 32.85 46.5352 32.7278L46.5283 32.7229L22.4102 18.7893C22.0176 18.5553 22.0185 17.9678 22.4131 17.7356L22.417 17.7336C23.1535 17.2917 23.6772 17.0085 24.2188 16.7083C24.7619 16.4071 25.3144 16.0923 26.0928 15.595L26.0938 15.5959L26.1016 15.5901C26.496 15.3271 26.7205 15.2869 26.874 15.2952Z" fill="#B1B1B1" stroke="#B1B1B1"/>
</svg>
