<svg width="676" height="255" viewBox="0 0 676 255" fill="none" xmlns="http://www.w3.org/2000/svg">
<path d="M255.836 0H0V50.9705H255.836V0Z" fill="#D9D8D8"/>
<path d="M332.662 153.062H205.115V102.091H281.495L332.662 153.062Z" fill="#D9D8D8"/>
<path d="M537.331 0L332.663 203.882H194.586L153.948 163.549V101.941L102.781 50.9705V184.676L173.377 254.852H281.495L281.347 255H353.723L609.707 0H537.331Z" fill="#D9D8D8"/>
<path d="M445.526 91.4513L353.87 0H281.494L373.15 91.4513H445.526Z" fill="#D9D8D8"/>
<path d="M445.525 163.55L537.33 254.854H609.705L517.901 163.55H445.525Z" fill="#D9D8D8"/>
<path d="M650.341 5.90962C661.316 5.90962 670.215 14.774 670.215 25.7068C670.215 36.6396 661.316 45.504 650.341 45.504C639.366 45.504 630.468 36.6396 630.468 25.7068C630.616 14.6263 639.515 5.90962 650.341 5.90962ZM650.341 0C636.252 0 624.684 11.376 624.684 25.5591C624.684 39.5944 636.104 51.1182 650.341 51.1182C664.431 51.1182 675.999 39.7422 675.999 25.5591C675.999 11.5237 664.579 0 650.341 0Z" fill="#D9D8D8"/>
<path d="M644.705 38.5602H639.662V13.592H653.01C656.125 13.592 658.349 14.183 659.684 15.3649C661.019 16.5469 661.76 18.4675 661.76 20.9791C661.76 24.0816 660.722 26.15 658.794 27.3319C660.574 28.2184 661.464 29.9913 661.464 32.3551V38.4125H656.421V32.6506C656.421 31.6164 656.125 30.8777 655.531 30.4344C654.938 29.9912 653.9 29.6957 652.565 29.6957H644.556V38.5602H644.705ZM644.705 25.2635H652.713C654.197 25.2635 655.235 24.9681 655.828 24.3771C656.421 23.7862 656.718 22.8997 656.718 21.7178C656.718 20.5358 656.421 19.6494 655.828 19.0585C655.235 18.4675 654.197 18.3198 652.713 18.3198H644.705V25.2635Z" fill="#D9D8D8"/>
</svg>
