<svg width="180" height="42" viewBox="0 0 180 42" fill="none" xmlns="http://www.w3.org/2000/svg">
<path d="M39.0186 0.5L47.4307 41.2607H0.867188L15.1875 16.5459H26.792L18.9492 31.4688L18.5645 32.2021H33.1816L33.0186 31.5762L24.9219 0.5H39.0186Z" fill="#B1B1B1" stroke="#B1B1B1"/>
<path d="M104.079 0.52832L81.3438 19.5127L80.9648 19.8291L81.2764 20.2119L98.417 41.2812H81.6426L68.5488 24.8115L70.0449 16.333L88.9795 0.5L104.079 0.52832ZM66.4854 16.5459L62.1367 41.25H49.1367L53.5059 16.5459H66.4854ZM69.3262 0.5L67.7344 9.55859H54.7344L56.3271 0.5H69.3262Z" fill="#B1B1B1" stroke="#B1B1B1"/>
<path d="M162.777 0.521484C167.975 0.521484 171.556 0.902986 173.568 1.64746L173.584 1.65332L173.601 1.6582C174.863 2.0293 176.019 2.69679 176.972 3.60449C177.921 4.50957 178.642 5.62753 179.074 6.86621V6.86719C179.522 8.25146 179.619 9.72563 179.354 11.1562H179.353L179.352 11.1641C178.924 13.7023 177.608 16.0005 175.648 17.6523L175.248 17.9736L175.238 17.9814C174.253 18.7739 173.153 19.4129 171.977 19.877C170.415 20.4251 168.807 20.83 167.172 21.0859L167.17 22.0732C168.337 22.2612 169.481 22.5743 170.58 23.0078C171.317 23.3306 171.973 23.814 172.501 24.4219V24.4209C173.693 25.802 174.129 27.838 173.648 30.6602L171.776 41.2705H158.786L160.408 32.0518L160.409 32.0459C160.782 29.776 160.491 28.0042 159.267 26.9922C158.669 26.4986 157.796 26.1639 156.709 25.9482C155.613 25.731 154.252 25.625 152.635 25.625H141.319L142.921 16.5664H159.053C160.26 16.5664 161.291 16.4731 162.136 16.2852C162.967 16.1002 163.651 15.8156 164.145 15.4102L164.146 15.4111C164.868 14.8566 165.363 14.0594 165.544 13.168C165.682 12.6592 165.663 12.1197 165.488 11.6221C165.314 11.1248 164.993 10.6918 164.567 10.3809L164.535 10.3574L164.501 10.3398L164.272 10.2275C163.135 9.69229 161.876 9.46164 160.62 9.55859H144.149L145.751 0.521484H162.777ZM138.886 16.5459L137.294 25.6045H116.903L116.83 26.0166L115.841 31.6045L115.737 32.1914H136.14L134.538 41.25H101.156L105.515 16.5459H138.886ZM141.717 0.5L140.115 9.55859H106.744L108.336 0.5H141.717Z" fill="#B1B1B1" stroke="#B1B1B1"/>
</svg>
