<svg width="600" height="308" viewBox="0 0 600 308" fill="none" xmlns="http://www.w3.org/2000/svg">
<path d="M482.32 79.7981H374.744V122.727H449.492L374.744 197.475L405.047 227.778L474.744 158.081V227.778H517.673V157.828H474.997L517.673 115.152L482.32 79.7981Z" fill="#D9D8D8"/>
<path d="M446.212 0C378.03 0 320.202 44.697 300 106.313C279.798 44.697 221.97 0 153.788 0C68.9394 0 0 68.9394 0 153.788C0 238.636 68.9394 307.576 153.788 307.576C221.97 307.576 279.798 262.879 300 201.263C320.202 262.879 378.03 307.576 446.212 307.576C531.061 307.576 600 238.636 600 153.788C600 68.9394 531.061 0 446.212 0ZM292.172 147.475H233.586C232.576 93.1818 217.424 46.9697 194.949 21.4646C249.495 38.3838 289.646 88.1313 292.172 147.475ZM146.212 16.1616V147.475H88.8889C90.404 80.5555 115.404 24.2424 146.212 16.1616ZM146.212 160.101V291.414C115.404 283.333 90.404 227.02 88.8889 160.101H146.212ZM161.364 291.414V160.101H218.687C217.172 227.02 192.172 283.333 161.364 291.414ZM161.364 147.475V16.1616C192.172 24.2424 217.172 80.5555 218.687 147.475H161.364ZM112.374 21.4646C89.899 46.9697 74.7475 93.1818 73.7374 147.475H15.1515C17.9293 88.1313 58.0808 38.3838 112.374 21.4646ZM15.4041 160.101H73.9899C75 214.394 90.1515 260.606 112.626 286.111C58.0808 269.192 17.9293 219.444 15.4041 160.101ZM195.202 286.111C217.677 260.606 232.828 214.394 233.838 160.101H292.424C289.646 219.444 249.495 269.192 195.202 286.111ZM446.212 292.424C369.697 292.424 307.576 230.303 307.576 153.788C307.576 77.2727 369.697 15.1515 446.212 15.1515C522.727 15.1515 584.848 77.2727 584.848 153.788C584.848 230.303 522.727 292.424 446.212 292.424Z" fill="#D9D8D8"/>
</svg>
