<svg width="175" height="34" viewBox="0 0 175 34" fill="none" xmlns="http://www.w3.org/2000/svg">
<path d="M67.0469 1.94824C67.9984 1.94827 68.9555 2.03117 69.9219 2.15723H69.9229C72.1856 2.45059 74.3501 2.9939 76.4248 3.94824V3.94727C80.708 5.92415 83.2954 9.28704 84.3281 13.8311L84.3291 13.834C84.6265 15.1087 84.865 16.3665 84.7852 17.5645V17.5674C84.7036 18.9138 84.3019 20.2279 83.9922 21.6787C81.6368 23.2722 79.3142 24.8602 76.9512 26.4502C77.6403 24.8974 78.0344 23.2443 78.2383 21.5791L78.2373 21.5781C78.7288 17.9627 78.1027 14.5143 76.8457 11.209L76.5859 10.5488C75.261 7.23841 72.944 4.77566 69.4189 3.6582H69.4199C68.5147 3.35647 67.5137 3.0791 66.4922 3.0791H66.4873C64.1747 3.1012 61.9341 3.6632 60.0645 4.89844C58.306 6.0603 56.8995 7.80183 56.0723 10.1914L55.915 10.6777C55.172 13.1254 54.908 15.6661 55.2148 18.2529C55.4724 20.6972 55.9062 23.1853 56.96 25.5137V25.5146C58.82 29.6775 62.0782 32.0888 66.6377 32.623V32.624C67.0787 32.6842 67.5175 32.6971 67.9531 32.6777C67.8978 32.7217 67.8431 32.7667 67.7891 32.8125H67.7881C67.088 33.4076 66.3166 33.499 65.3154 33.3789C62.9869 33.0774 60.6641 32.9922 58.3535 32.9922H58.3516C45.5692 33.0348 32.7886 32.9922 20.0029 32.9922H19.9492V32.1064C20.4622 32.0506 20.9937 31.9973 21.5078 31.8945L21.5176 31.8926C21.9542 31.7956 22.4342 31.6038 22.8252 31.3594L22.8281 31.3574C23.1219 31.1705 23.38 30.9078 23.4463 30.5322C23.5087 30.1781 23.3751 29.8515 23.2051 29.5791H23.207C22.9395 29.111 22.6477 28.6709 22.3369 28.2256C23.913 27.2448 25.4846 26.3059 27.1348 25.2852C27.2232 25.3991 27.3042 25.5101 27.3848 25.6309L27.3975 25.6494L27.4121 25.667C28.4622 26.9691 29.5057 28.3589 30.625 29.6074L30.6309 29.6143C31.7938 30.8666 33.2472 31.7841 35.0322 32.0645V32.0654C35.5143 32.1618 35.9892 32.1602 36.3662 32.1602C42.7576 32.1602 49.1513 32.1598 55.5449 32.1172L55.5439 32.1162C55.6833 32.1162 55.8492 32.1173 56.1084 32.0654L57.3555 31.8154L56.2725 31.1484L54.8301 30.2578C51.8431 28.2492 50.0781 25.4257 49.252 21.9561C49.0309 20.9606 48.8453 19.9782 48.7471 19.0029L48.7109 18.584C48.6735 17.8854 48.7898 17.1753 48.918 16.4492L48.9189 16.4414L48.9199 16.4326C49.2109 14.3962 49.7915 12.4921 50.7422 10.6729C52.2229 7.87623 54.401 5.85797 57.2168 4.4082C59.5011 3.24529 61.9163 2.57706 64.4277 2.24219L64.4326 2.24121C65.3596 2.10879 66.1988 1.94824 67.0469 1.94824Z" fill="#B1B1B1" stroke="#B1B1B1"/>
<path d="M158.743 2.07642L158.751 2.0979C161.264 8.57305 163.824 15.0134 166.336 21.4417V21.4426C166.505 21.8834 166.675 22.2966 166.864 22.7434C165.23 23.8694 163.595 24.9954 161.961 26.1213C161.613 25.26 161.275 24.4327 160.964 23.6018L160.961 23.593L160.957 23.5852L160.646 22.8264C160.548 22.5771 160.455 22.3308 160.373 22.0852L160.369 22.0706L160.363 22.0579L160.318 21.9543C160.265 21.8438 160.184 21.7152 160.05 21.6145C159.861 21.473 159.649 21.4446 159.473 21.4446H149.076C148.957 21.4446 148.755 21.452 148.568 21.5608C148.366 21.6789 148.264 21.8643 148.217 22.0481H148.216C147.493 24.3012 146.727 26.5557 145.961 28.7698H145.962C145.861 29.0304 145.812 29.3241 145.808 29.5784C145.762 30.1966 145.83 30.7783 146.18 31.2239C146.535 31.6762 147.091 31.8746 147.744 31.9446H147.748C148.609 32.0306 149.5 32.0334 150.312 32.0735C150.448 32.0942 150.587 32.0947 150.706 32.0911V32.9504H100.24C104.388 30.438 108.481 27.9501 112.571 25.4329C112.623 25.5933 112.677 25.7513 112.737 25.8918L112.738 25.8948C113.696 28.0842 115.426 29.479 117.455 30.4495L117.46 30.4514C119.439 31.375 121.506 31.8576 123.657 31.9456V31.9465C126.527 32.075 129.442 32.0325 132.287 32.0325C133.435 32.0325 134.572 32.0433 135.712 32.054C136.851 32.0646 137.994 32.0754 139.147 32.0754C140.661 32.0754 141.786 31.3298 142.546 30.1907L142.552 30.1819L142.557 30.1741C143.026 29.4061 143.518 28.5594 143.835 27.6995L143.836 27.6975C146.393 20.6666 148.907 13.6316 151.463 6.56079C151.656 6.04651 151.838 5.53325 152.019 5.02466C152.2 4.51269 152.379 4.00553 152.569 3.49927L152.568 3.49829C152.644 3.31742 152.697 3.12816 152.697 2.92407C152.697 2.70727 152.639 2.51355 152.549 2.33325L152.542 2.32056L152.535 2.30884L152.442 2.12427C152.435 2.10862 152.43 2.0924 152.423 2.07642H158.743ZM153.459 7.427C153.452 7.44818 153.437 7.48086 153.409 7.53149C153.395 7.55665 153.383 7.57959 153.366 7.60864C153.352 7.6343 153.332 7.66861 153.315 7.70239L153.303 7.72778L153.293 7.75415C152.633 9.56461 151.973 11.3649 151.312 13.1653C150.652 14.9655 149.991 16.7659 149.33 18.5774V18.5784C149.291 18.6862 149.246 18.8102 149.222 18.9192C149.202 19.0103 149.158 19.2466 149.31 19.4651C149.46 19.6817 149.695 19.7258 149.792 19.7405C149.91 19.7581 150.049 19.76 150.184 19.76H159.485L159.213 19.0754C157.636 15.1122 156.102 11.2759 154.524 7.39673L154.397 7.08423H153.573L153.459 7.427Z" fill="#B1B1B1" stroke="#B1B1B1"/>
<path d="M11.2793 28.5063C11.2793 29.4721 11.4986 30.2945 12.0205 30.9155C12.3891 31.3541 12.8796 31.6532 13.4688 31.8423C13.3589 31.9239 13.2528 32.007 13.1553 32.0923L13.1475 32.1001C12.297 32.8766 11.2929 33.1178 10.0059 33.0776H10.0039C6.88413 32.9922 3.75937 33.0347 0.615234 33.0347H0.561523V32.1167H1.04199C1.20391 32.1167 1.3569 32.1264 1.55957 32.1323C1.74395 32.1377 1.95248 32.1378 2.15918 32.1128L2.16016 32.1138C2.16116 32.1137 2.16209 32.1129 2.16309 32.1128C2.165 32.1126 2.16704 32.113 2.16895 32.1128L2.16797 32.1118C2.83091 32.0397 3.4247 31.8347 3.90723 31.4565C4.39445 31.0746 4.73423 30.5437 4.92969 29.8843L4.93164 29.8794C5.11523 29.2368 5.20605 28.5513 5.20605 27.9097V7.71143C5.206 6.66453 4.92562 5.76748 4.32812 5.09912C3.73032 4.43061 2.86812 4.05041 1.82129 3.93408V3.93311H1.81152C1.56337 3.91055 1.30613 3.89873 1.06348 3.88818C0.869026 3.87973 0.683481 3.86976 0.505859 3.85693C0.495231 3.56351 0.500872 3.28512 0.508789 2.96436C5.63385 2.88893 10.7618 2.88533 15.9668 2.88525V3.75635C15.6246 3.74844 15.1704 3.72504 14.7842 3.76025C13.688 3.80595 12.6087 4.08902 11.8418 5.1626L11.8369 5.16846C11.3735 5.83784 11.2373 6.63448 11.2373 7.37061C11.2373 10.5636 11.2377 13.7182 11.2803 16.9155H11.2793C11.2793 17.0153 11.279 17.1666 11.3477 17.3726L11.4873 17.7905L11.9209 17.7046C12.0031 17.6882 12.0785 17.6793 12.1758 17.6685C12.2699 17.658 12.3861 17.6457 12.5166 17.6196L12.5264 17.6177L12.5352 17.6157C14.4244 17.1658 16.0246 16.1795 17.502 15.0063L17.5059 15.0044C20.009 12.9843 21.751 10.4035 23.2148 7.64795L23.2207 7.63721C23.4635 7.15163 23.6032 6.6302 23.6934 6.08936L23.6943 6.0835C23.8055 5.36092 23.5268 4.58954 22.7529 4.26709L22.7412 4.26221L22.7285 4.2583L22.4863 4.17627C21.9181 3.996 21.3272 3.88397 20.751 3.80713C20.5722 3.78205 20.4013 3.78107 20.248 3.78564V2.88525H32.709C32.6931 3.06399 32.6926 3.24145 32.6973 3.40088C32.7019 3.55701 32.707 3.68415 32.71 3.80811C31.5038 3.86075 30.339 4.08022 29.1777 4.46729L29.166 4.47119C27.9586 4.90596 27.2038 5.77344 26.5547 6.63818C25.3602 8.17391 24.1663 9.75189 22.9746 11.3267C21.836 12.8027 20.6273 14.1745 19.1797 15.3325L19.1582 15.3491L19.1387 15.3696C19.0857 15.4226 18.9963 15.5109 18.917 15.6694L18.7314 16.0405L19.0625 16.2915C21.6742 18.27 23.6521 20.7779 25.7139 23.4077C24.1621 24.4618 22.6609 25.5177 21.1133 26.5991C20.9422 26.3972 20.771 26.1962 20.6006 25.9917C20.3349 25.6728 20.0657 25.3496 19.7852 25.0259L19.7812 25.021L17.7246 22.6978C17.0298 21.9175 16.3225 21.1353 15.5947 20.3647H15.5938C14.9108 19.6369 14.0416 19.0367 13.0264 18.7075C12.9107 18.655 12.7526 18.6059 12.5771 18.5942C12.4295 18.565 12.2802 18.5383 12.1494 18.5327C12.0169 18.5271 11.7956 18.5363 11.6055 18.6929C11.4156 18.8494 11.3644 19.0643 11.3447 19.1938C11.3242 19.3289 11.3223 19.4886 11.3223 19.6431C11.3223 22.5837 11.3228 25.5627 11.2803 28.4985H11.2793V28.5063Z" fill="#B1B1B1" stroke="#B1B1B1"/>
<path d="M119.151 6.83838C119.793 7.18632 120.428 7.26606 121.046 7.21045C120.484 7.74473 119.915 8.29136 119.39 8.8667L119.388 8.86865C116.898 11.6164 114.681 14.5636 113.244 18.0913C112.704 19.3673 112.365 20.7137 112.259 22.1001L112.228 22.6978V22.7124C112.227 22.7827 112.214 22.8038 112.209 22.812C112.198 22.8292 112.166 22.8684 112.066 22.9351L112.061 22.939C109.339 24.8103 106.565 26.6883 103.836 28.6069C102.437 29.5704 101.037 30.5294 99.624 31.4917C99.7594 31.2514 99.8969 31.0122 100.031 30.7681C101.402 28.497 102.712 26.2131 104.154 24.0073C106.024 21.1604 107.979 18.3576 110.017 15.6401C111.922 13.0997 113.984 10.7035 116.373 8.69189L116.375 8.68994C117.186 8.00102 118.062 7.48092 118.972 6.87646C118.981 6.87267 118.995 6.8676 119.013 6.86279C119.04 6.8554 119.071 6.84985 119.101 6.84717C119.131 6.84444 119.154 6.84553 119.167 6.84717C119.181 6.84897 119.173 6.85013 119.151 6.83936V6.83838Z" fill="#B1B1B1" stroke="#B1B1B1"/>
<path d="M116.393 1.90649C116.594 1.90649 116.726 1.90817 116.821 1.91431C116.827 2.00922 116.83 2.14148 116.83 2.34399V4.57153H86.2656C86.1206 4.57146 85.9578 4.52068 85.8096 4.43384C84.3645 3.32021 82.7862 2.50524 81.1191 1.90649H116.393Z" fill="#B1B1B1" stroke="#B1B1B1"/>
<path d="M167.85 25.2993C167.956 25.5762 168.062 25.8535 168.169 26.1304L168.175 26.144C168.34 26.5371 168.483 26.937 168.642 27.3569C168.797 27.7695 168.964 28.1944 169.168 28.6021C169.634 29.5757 170.229 30.4577 171.046 31.0913C171.762 31.6468 172.627 31.9928 173.675 32.062V32.9497H158.451C158.448 32.9497 158.444 32.9487 158.44 32.9487C158.477 32.6287 158.479 32.3088 158.448 31.9888C159.269 31.9887 160.077 31.9871 160.93 31.9019L160.942 31.9009L160.955 31.8989C161.713 31.7842 162.341 31.5249 162.707 30.98C163.022 30.5104 163.075 29.9276 162.992 29.2905L162.949 29.0142C162.922 28.8157 162.874 28.6257 162.826 28.4565C162.779 28.2878 162.738 28.1544 162.701 28.0132C163.58 27.4814 164.45 26.9504 165.317 26.4194C166.115 25.9312 166.913 25.444 167.717 24.9565C167.761 25.0708 167.806 25.1851 167.85 25.2993Z" fill="#B1B1B1" stroke="#B1B1B1"/>
<path d="M82.4824 25.4646C82.3146 25.7575 82.1459 26.0443 81.9688 26.3181C80.5338 28.4895 78.5641 30.0932 76.209 31.2087L76.2061 31.2107C74.2918 32.1348 72.2632 32.667 70.1738 32.9949C72.1627 31.7737 74.1565 30.5564 76.1514 29.3396C78.2636 28.0512 80.375 26.7596 82.4824 25.4646Z" fill="#B1B1B1" stroke="#B1B1B1"/>
<path d="M121.675 0.5C122.826 0.5 123.731 1.44743 123.731 2.6416C123.69 3.80566 122.728 4.69824 121.59 4.69824C120.471 4.69821 119.533 3.74028 119.533 2.59961C119.533 1.4376 120.492 0.500173 121.675 0.5Z" fill="#B1B1B1" stroke="#B1B1B1"/>
<path d="M15.8809 32.9507H14.4219C14.4487 32.9347 14.4749 32.9176 14.502 32.9019L14.5088 32.8989L14.5156 32.894C14.9054 32.6504 15.1779 32.4401 15.5186 32.2886L15.5293 32.2837L15.5391 32.2788C15.6531 32.2218 15.7642 32.1785 15.8809 32.1372V32.9507Z" fill="#B1B1B1" stroke="#B1B1B1"/>
</svg>
