<svg width="120" height="59" viewBox="0 0 120 59" fill="none" xmlns="http://www.w3.org/2000/svg">
<path d="M81.417 0.5V25.665H70.582V0.5H81.417Z" fill="#B1B1B1" stroke="#B1B1B1"/>
<path d="M117.755 0.5L100.372 25.625H87.2588L104.641 0.5H117.755Z" fill="#B1B1B1" stroke="#B1B1B1"/>
<path d="M101.661 32.1396L119.056 57.707H105.935L88.54 32.1396H101.661Z" fill="#B1B1B1" stroke="#B1B1B1"/>
<path d="M81.417 32.1396V57.707H70.582V32.1396H81.417Z" fill="#B1B1B1" stroke="#B1B1B1"/>
<path d="M28.7861 0.5C43.3537 0.5 55.3758 11.4899 56.9727 25.625H46.2744C44.7366 17.3817 37.5037 11.0928 28.7861 11.0928C20.069 11.0928 12.8351 17.3427 11.2979 25.625H0.599609C2.19651 11.4899 14.2186 0.500012 28.7861 0.5Z" fill="#B1B1B1" stroke="#B1B1B1"/>
<path d="M56.9258 32.0994C56.1909 38.4482 53.3823 44.1775 49.1523 48.5613L48.8369 48.8875L49.1318 49.2332L56.3574 57.7068H42.2139L40.1094 55.2644L39.873 54.99L39.5381 55.1287C36.2177 56.5122 32.5798 57.2644 28.7412 57.2644C14.1737 57.2644 2.15162 46.2745 0.554688 32.1394H11.2939C12.8318 40.3825 20.0638 46.6715 28.7812 46.6716C29.7585 46.6716 30.7193 46.6306 31.6484 46.4617L32.5029 46.3064L31.9395 45.6453L25.9189 38.5798H40.0635L41.6055 40.3777L41.9873 40.824L42.3662 40.3757C44.3177 38.0658 45.6918 35.2205 46.2734 32.0994H56.9258Z" fill="#B1B1B1" stroke="#B1B1B1"/>
</svg>
